<?xml version="1.0" encoding="UTF-8"?><svg id="_レイヤー_1" xmlns="http://www.w3.org/2000/svg" viewBox="0 0 400 400"><defs><style>.cls-1{fill:#e97698;}.cls-1,.cls-2{stroke-width:0px;}.cls-2{fill:#757677;}</style></defs><path class="cls-1" d="M249.89001,121.13c-2.5,6.99-6.77,12.37-13.27,15.38-2.91,1.35001-6.64999,1.98-9.78999,1.5-5.44-.84-10.71001-2.8-16.28-4.35001,11.39999-16.3,23.37-20.04,39.34-12.54v.01001Z"/><path class="cls-1" d="M306.42001,152.13c11.14001,19.35001,12.29999,24.02-1.22,41.03-10.12-6.41-13.39999-19.89999-7.06-29.87,2.39999-3.77,5.32001-7.2,8.28-11.16Z"/><path class="cls-1" d="M247.53001,66.69c-6,14.95-3.84,28,8.17,39.47-11.27-1.82-17.94-7.92-19.62-17.12-1.49001-8.18,3.09-17.55,11.45-22.35Z"/><path class="cls-1" d="M248.78001,72.14c1.8-10.43,9-17.67,17.78999-18.64,8.69-.96,17.17999,3.53,21.04001,11.76-14.73-6.34-27.53-3.78-38.82001,6.88h-.00999Z"/><path class="cls-1" d="M281.68002,66.12c9.10999.86,17.06,7.94,18.87,16.09,2.01001,9.05-2.04001,17.76-11.66,23.36,6.73999-15.09,4.04999-27.96-7.20999-39.45Z"/><path class="cls-1" d="M249.74001,107.68c23.39,4.37,20.8,4.07,38.62999-7.79-1.29999,9.41-7.66,16.66-16.00999,18.24-8.87,1.68-17.87-2.39-22.62-10.45Z"/><path class="cls-1" d="M276.36002,99.12c-8.27,6.36-16.32001,6.58-21.75,1.03-5.49001-5.62-5.24001-13.87.96001-21.49,0,6.15-1.37,12.44,3.3,17,4.67,4.57,11.00999,3.26,17.49001,3.46h-.00002Z"/><path class="cls-1" d="M281.68002,93.91c1.41-18.42-4.42999-22.64-19.97-20.86,2.32001-3.26,9.28-5.84,13.92999-4.94,5.57001,1.08,9.32999,4.53,10.73999,9.94,1.51001,5.83-.82999,10.81-4.70001,15.86h.00003Z"/><path class="cls-1" d="M275.57001,85.72c1.03,4.23-.63,7.65-4.50999,8.73-4.06,1.14-6.99001-.83-8.37-5.37,2.28.48,4.95,1.85,7.11,1.28,2.2-.57,3.89999-3.05,5.77-4.64h-.00002Z"/><path class="cls-1" d="M261.87001,86.26c-.77-4.96.67999-8.04,4.37-8.94,4-.97,7.13,1.08,8.37,5.27-2.36-.43-5.05-1.7-7.24001-1.1-2.10001.58-3.67,3.09-5.50999,4.77h.01001Z"/><path class="cls-1" d="M310.98001,62.67c-8.84,5.91-11.59,13.78-9.70999,23.58-4.39999-2.76-6.42999-9.74-4.64001-15.01,1.91-5.63,7.48001-9.19,14.35001-8.58v.01Z"/><path class="cls-1" d="M302.82001,83.47c6.04999,7.92,13.79001,11.32,23.95999,8.82-3.14999,4.58-9.01999,6.66-13.98999,5.34-6-1.59-9.66-6.58-9.97-14.17v.00999Z"/><path class="cls-1" d="M324.03,91.03c10.88-12.17,8.76001-9.82,8.94-23.49,3.95001,2.14,6.29999,9.08,4.72,13.95-1.92001,5.92-7.63,9.98-13.64999,9.54h-.01001Z"/><path class="cls-1" d="M331.26001,70.77c-6.06-8.75-13.92001-11.66-23.85001-9.58,3.23001-4.59,10.23001-6.58,15.39999-4.68,5.5,2.03,8.92999,7.44,8.45001,14.26Z"/><path class="cls-1" d="M311.08002,84.45c3.84.66,7.67999,2.28,11.14001-.21,3.44-2.48,3.41-6.6,4.13-10.28,3.17999,3.34,2.72,9.78-.94,12.94-4.19,3.61-10.22,2.64-14.32001-2.45h-.01001Z"/><path class="cls-1" d="M307.92001,80c-3.13-6.1-2.13-11.4,2.44-14.19,4.07001-2.49,9.48001-1.13,12.92999,3.43-3.85999-.52-7.70001-2.1-11.16.21-3.57001,2.39-3.5,6.51-4.20999,10.55Z"/><path class="cls-1" d="M321.46002,77.84c-1.93332-3.06667-4.51666-4.21-7.75-3.43,1.20999-2.75,3.14001-3.79,5.45001-2.93,2.67999.99,3.44,3.1,2.29999,6.37v-.01Z"/><path class="cls-1" d="M313,75.56c2.19,4.83,2.89001,5.17,7.64999,3.8-1.10001,2.68-3.28,3.8-5.62,2.9-2.62-1.01-3.37-3.31-2.04001-6.7h.01001Z"/><path class="cls-1" d="M318.64001,104.15c-14.57999,1.93-22.81,10.02-26.47,23.33-3.76999-6.12-2.03-16.01,3.41-21.46,5.81-5.82,14.89999-6.84,23.04999-1.87h.01001Z"/><path class="cls-1" d="M295.79001,124.98c2.67001,13.53001,10.19,22.48,24.35001,25.59-6.70001,3.75999-15.26001,2.75-20.63-1.92-6.48001-5.64-7.95999-14.06999-3.72-23.67001Z"/><path class="cls-1" d="M317.49002,147.33c20.92999-8.46001,16.88-6.83,25.45001-23.69,3.60001,5.07001,2.26999,15.12-2.67001,20.2-6,6.17-15.57001,7.73-22.76999,3.49001h-.01001Z"/><path class="cls-1" d="M338.84003,126.6c-2.17001-14.56-10.16-22.98-23.73999-26.46,6.81-3.72,16.72-1.92,21.97,3.6,5.59,5.88,6.54001,14.69,1.76999,22.86Z"/><path class="cls-1" d="M305.45001,131.24001c4.35999,3.16,8.14001,7.52,13.95001,6.55,5.78-.97,8.26001-6.11,11.41-10.24,1.89999,6.09-2.60001,13.81001-9.07999,15.48-7.39999,1.92-14.29999-2.97-16.28-11.78999l-.00003-.00002Z"/><path class="cls-1" d="M304.24002,123.79c-.16-9.49,4.32001-15.45,11.70001-16.12,6.57001-.6,12.45999,4.4,13.95001,12.17-4.48001-3.01-8.26999-7.31-13.97-6.55-5.89001.78-8.32001,5.95-11.67001,10.51l-.01001-.00999Z"/><path class="cls-1" d="M322.37003,129.38c-.52667-4.98-3.03-7.98-7.51001-9,3.17999-2.67,6.20999-2.78,8.54999-.31,2.72,2.87,2.38,5.95-1.04001,9.31h.00003Z"/><path class="cls-1" d="M313.26001,121.38c-.23999,7.34.42999,8.18,7.17001,9.4-3,2.64999-6.39001,2.72-8.73999.16-2.63-2.86-2.14999-6.16,1.57001-9.56h-.00003Z"/><path class="cls-1" d="M272.52002,116.45c-12.92,1.71-20.20999,8.88-23.45,20.67-3.34-5.42-1.78999-14.19,3.02-19.01,5.14999-5.16,13.2-6.06,20.42999-1.66Z"/><path class="cls-1" d="M252.28001,134.89999c2.37,11.99001,9.03,19.92,21.58,22.67999-5.94,3.33-13.52,2.44-18.28-1.7-5.74001-5-7.06-12.47-3.3-20.98Z"/><path class="cls-1" d="M271.51001,154.7c18.54999-7.49001,14.95001-6.05,22.54999-20.99001,3.19,4.49001,2.01001,13.39-2.37,17.89999-5.32001,5.46001-13.78999,6.85001-20.17999,3.09v.00002Z"/><path class="cls-1" d="M290.43002,136.34c-1.92001-12.9-9-20.36-21.04001-23.45,6.03999-3.29,14.82001-1.7,19.47,3.19,4.95001,5.21,5.79001,13.02,1.57001,20.25v.00999Z"/><path class="cls-1" d="M260.84001,140.45c3.86,2.8,7.21001,6.67,12.36,5.8,5.12-.86,7.32001-5.41,10.10999-9.07001,1.67999,5.39999-2.29999,12.23-8.03999,13.72-6.56,1.7-12.67-2.63-14.42-10.45h-.00999Z"/><path class="cls-1" d="M259.77002,133.85001c-.14-8.41,3.83-13.69,10.36-14.29,5.82001-.53,11.03999,3.89,12.36,10.78001-3.97-2.66-7.33-6.47-12.38-5.81-5.22.69-7.38,5.27-10.34,9.31v.00999Z"/><path class="cls-1" d="M275.84001,138.8c-.46666-4.41333-2.68668-7.07001-6.66-7.97,2.82001-2.37,5.5-2.46001,7.58-.27,2.41,2.53999,2.11,5.27-.92,8.25v-.00999Z"/><path class="cls-1" d="M267.76001,131.72c-.21001,6.5.38,7.25,6.36,8.32001-2.66,2.35001-5.66,2.41-7.74001.14999-2.33-2.53-1.91-5.46001,1.39-8.47h-.00999Z"/><path class="cls-1" d="M358.91,80.67c-12.92001,1.71-20.20999,8.88-23.45001,20.67-3.34-5.42-1.79001-14.19,3.01999-19.01,5.14999-5.16,13.20001-6.06,20.42999-1.66h.00003Z"/><path class="cls-1" d="M338.66,99.12c2.37,11.99,9.03,19.92,21.57999,22.68-5.94,3.33-13.51999,2.44-18.28-1.7-5.73999-5-7.06-12.47-3.29999-20.98Z"/><path class="cls-1" d="M357.89001,118.92c18.54999-7.49,14.95001-6.05,22.54999-20.99,3.19,4.49,2.01001,13.39-2.37,17.9-5.32001,5.46-13.79001,6.85-20.17999,3.09Z"/><path class="cls-1" d="M376.81,100.56c-1.92001-12.9-9-20.36-21.04001-23.45,6.04001-3.29,14.82001-1.7,19.47,3.19,4.95001,5.21,5.79001,13.02,1.57001,20.25v.00999Z"/><path class="cls-1" d="M347.22,104.67c3.85999,2.8,7.20999,6.67,12.35999,5.8,5.12-.86,7.32001-5.41,10.10999-9.07,1.67999,5.4-2.29999,12.23-8.04001,13.72-6.56,1.7-12.67001-2.63-14.42001-10.45h-.00995Z"/><path class="cls-1" d="M346.15002,98.07c-.14001-8.41,3.82999-13.69,10.35999-14.29,5.82001-.53,11.04001,3.89,12.35999,10.78-3.97-2.66-7.32999-6.47-12.38-5.81-5.22.69-7.38,5.27-10.34,9.31l.00003.01Z"/><path class="cls-1" d="M362.22,103.02c-.46667-4.41334-2.68668-7.07001-6.66-7.97,2.82001-2.37,5.5-2.46,7.57999-.27,2.41,2.54,2.10999,5.27-.92001,8.25l.00003-.01Z"/><path class="cls-1" d="M354.14001,95.94c-.20999,6.5.38,7.25,6.35999,8.32-2.66,2.35-5.66,2.41-7.73999.15-2.32999-2.53-1.91-5.46,1.39001-8.47h-.01001Z"/><path class="cls-1" d="M381.29001,58.08c-2.54001,2.92-5,5.91-7.63,8.76-2.54999,2.75-5.79999,4.03-9.56,3.66-3.42001-.34-6.82001-.85-10.20001-1.29.38-6.1,7.84-15.02,14.92001-14.14,4.12.51,8.17999,1.46,12.26999,2.22.07001.27.13.53.20001.8v-.01001Z"/><path class="cls-1" d="M341.58002,148.31s48.56,35.27,54.69,51.11l-17.89001,6.64-36.79999-57.75999v.00999Z"/><path class="cls-1" d="M333.40002,155.47l4.09-2.56s12.78,41.39999,2.56,64.92h-21.47s20.45001-27.09,14.82001-62.36Z"/><path class="cls-1" d="M355.05002,140.69l-3.59,3.46001s18.45999,25.31,37.73999,21.7l10.79999-22.09s-26.57001,13.08-44.94-3.07001h-.00998Z"/><path class="cls-1" d="M248.81001,112.19c-16.94,3.79-20.68001,3.58-30.17-10.39,7.10001-6.03,17.87-5.35,23.81,1.66,2.24001,2.65,4.12,5.62,6.37,8.73h-.00999Z"/><path class="cls-1" d="M291.81,153.44c.41,5.08-.75,9.64-3.97,13.36-1.44,1.66-3.60001,3.11-5.70001,3.7-3.64,1.00999-7.49001,1.27-11.41,1.87,2.53999-13.41,8.97-19.12,21.07001-18.92l.01001-.00999Z"/><path class="cls-1" d="M291.37003,26.66c-7.82001,5.37-10.17999,12.43-8.39001,21.15-3.96001-2.41-5.85001-8.61-4.31-13.33,1.64-5.04,6.57001-8.29,12.70001-7.82Z"/><path class="cls-1" d="M284.33002,45.31c5.48999,7,12.42999,9.94,21.48001,7.59-2.75,4.12-7.97,6.04-12.42001,4.93-5.37-1.35-8.69-5.76-9.06-12.52Z"/><path class="cls-1" d="M303.34003,51.81c9.56-10.98,7.70001-8.86,7.70001-21.06,3.54999,1.86,5.73001,8.03,4.37,12.39-1.64999,5.3-6.69,8.99-12.07001,8.67Z"/><path class="cls-1" d="M309.55002,33.66c-5.51001-7.74-12.56-10.24-21.38-8.27,2.82999-4.13,9.04999-5.99,13.67999-4.35,4.92999,1.75,8.04999,6.53,7.70001,12.62Z"/><path class="cls-1" d="M291.71002,46.09c3.42999.54,6.88,1.94,9.92999-.31,3.04001-2.25,2.95999-5.93,3.56-9.22,2.87,2.95,2.54001,8.7-.69,11.55-3.70001,3.27-9.09,2.47-12.81-2.02h.01001Z"/><path class="cls-1" d="M288.84003,42.16c-2.87-5.41-2.03-10.15,2.01001-12.69,3.60001-2.26,8.45001-1.12,11.57999,2.91-3.45001-.42-6.89001-1.78-9.95001.32-3.16,2.17-3.04999,5.85-3.64001,9.46h.00003Z"/><path class="cls-1" d="M300.90002,40.07c-1.76001-2.71333-4.07669-3.70333-6.95001-2.97,1.04999-2.46,2.76001-3.41,4.82999-2.68,2.39999.85,3.10999,2.73,2.13,5.65h-.00998Z"/><path class="cls-1" d="M293.32001,38.14c2.01001,4.29,2.64001,4.58,6.87,3.3-.95001,2.4-2.88,3.43-4.98001,2.65-2.35001-.87-3.04001-2.91-1.89001-5.95h.00003Z"/><path class="cls-1" d="M336.03,32.51c-8.84,5.91-11.59,13.78-9.70999,23.58-4.39999-2.76-6.42999-9.74-4.64001-15.01,1.91-5.63,7.48001-9.19,14.35001-8.58v.01001Z"/><path class="cls-1" d="M327.86002,53.31c6.04999,7.92,13.79001,11.32,23.95999,8.82-3.14999,4.58-9.01999,6.66-13.98999,5.34-6-1.59-9.66-6.58-9.97-14.17v.01Z"/><path class="cls-1" d="M349.07001,60.88c10.88-12.17,8.76001-9.82,8.94-23.49,3.95001,2.14,6.29999,9.08,4.72,13.95-1.92001,5.92-7.63,9.98-13.64999,9.54h-.01001Z"/><path class="cls-1" d="M356.30002,40.61c-6.06-8.75-13.92001-11.66-23.85001-9.58,3.23001-4.59,10.23001-6.58,15.39999-4.68,5.5,2.03,8.92999,7.44,8.45001,14.26Z"/><path class="cls-1" d="M336.13,54.29c3.84.66,7.67999,2.28,11.14001-.21,3.44-2.48,3.41-6.6,4.13-10.28,3.17999,3.34,2.72,9.78-.94,12.94-4.19,3.61-10.22,2.64-14.32001-2.45h-.01001Z"/><path class="cls-1" d="M332.96002,49.84c-3.13-6.1-2.13-11.4,2.44-14.19,4.07001-2.49,9.48001-1.13,12.92999,3.43-3.85999-.52-7.70001-2.1-11.16.21-3.57001,2.39-3.5,6.51-4.20999,10.55Z"/><path class="cls-1" d="M346.51001,47.68c-1.93332-3.06667-4.51666-4.21-7.75-3.43,1.20999-2.75,3.14001-3.79,5.45001-2.93,2.67999.99,3.44,3.1,2.29999,6.37v-.01Z"/><path class="cls-1" d="M338.04001,45.4c2.19,4.83,2.89001,5.17,7.64999,3.8-1.10001,2.68-3.28,3.8-5.62,2.9-2.62-1.01-3.37-3.31-2.04001-6.7h.01001Z"/><path class="cls-1" d="M380.91,133.73c-2.72.52-5.42001,1.10001-8.14999,1.53-2.64999.42-5.04001-.31-6.98001-2.17999-1.76999-1.7-3.45001-3.5-5.14999-5.23,2.91-3.26,11.04001-4.95,14.62-1.33,2.07999,2.10999,3.94,4.43999,5.89999,6.67001-.07999.17999-.16.36-.23999.53999Z"/><path class="cls-1" d="M249.28001,34.43c17.27-1.77,20.95-1.12,28.74001,13.88-7.75999,5.15-18.38,3.2-23.44-4.46-1.92-2.9-3.42999-6.06-5.28999-9.42h-.01001Z"/><path class="cls-2" d="M269.01001,377.45001H64.93001c-8.28,0-15.02-6.73999-15.02-15.01999v-139.10001c0-8.28,6.74-15.02,15.02-15.02h204.08c8.28,0,15.01999,6.74001,15.01999,15.02v139.10001c0,8.28-6.74001,15.01999-15.02,15.01999h.00002ZM64.93001,221.60001c-.95,0-1.73.78-1.73,1.73v139.09999c0,.95001.78,1.73001,1.73,1.73001h204.08c.95,0,1.73-.78,1.73-1.73001v-139.10001c0-.95-.78-1.73-1.73-1.73H64.93001v.00002Z"/><rect class="cls-1" x="145.48001" y="214.96001" width="42.99001" height="61.27"/><path class="cls-2" d="M188.47002,282.88h-42.99001c-3.67,0-6.65-2.98001-6.65-6.64999v-61.27c0-3.67,2.98-6.64999,6.65-6.64999h42.99001c3.67,0,6.64999,2.98,6.64999,6.64999v61.27c0,3.67001-2.98,6.64999-6.64999,6.64999ZM152.12001,269.59h29.7v-47.98h-29.7v47.98Z"/><polygon class="cls-2" points="165.75002 200.74001 158.25002 180.97 150.75002 161.2 171.63 164.59 192.50002 167.99001 179.12001 184.37 165.75002 200.74001"/><path class="cls-2" d="M212.89001,112.88s-56.29001,18.82-47.14999,87.85999c0,0,15.25-64.25,47.14999-87.85999Z"/></svg>