<?xml version="1.0" encoding="UTF-8"?>
<svg id="_レイヤー_1" xmlns="http://www.w3.org/2000/svg" version="1.1" viewBox="0 0 400 400">
  <!-- Generator: Adobe Illustrator 29.3.1, SVG Export Plug-In . SVG Version: 2.1.0 Build 151)  -->
  <defs>
    <style>
      .st0 {
        fill: #e4b4bd;
      }

      .st1 {
        font-size: 10.25px;
      }

      .st1, .st2, .st3 {
        isolation: isolate;
      }

      .st1, .st3 {
        fill: #4c4a4a;
        font-family: KozGoPr6N-Regular-83pv-RKSJ-H, 'Kozuka Gothic Pr6N';
      }

      .st4 {
        fill: #e97698;
      }

      .st5 {
        fill: #fff;
      }

      .st6 {
        stroke: #e97698;
        stroke-linecap: round;
        stroke-linejoin: round;
        stroke-width: 4px;
      }

      .st6, .st7 {
        fill: none;
      }

      .st8 {
        fill: #757677;
      }

      .st3 {
        font-size: 31.99px;
      }

      .st7 {
        stroke: #e4b4bd;
        stroke-miterlimit: 10;
        stroke-width: 2px;
      }
    </style>
  </defs>
  <g class="st2">
    <text class="st3" transform="translate(-67.73 -884.16)"><tspan x="0" y="0">よくあるご質問</tspan></text>
  </g>
  <g class="st2">
    <text class="st1" transform="translate(184.68 -899.25)"><tspan x="0" y="0">今からでも間に合うの？</tspan></text>
    <text class="st1" transform="translate(184.68 -882.59)"><tspan x="0" y="0">どのボトルにどんなお花がどれくらい入りますか？</tspan></text>
  </g>
  <polygon class="st0" points="538.28 -899.25 533.06 -896.24 527.84 -893.23 527.84 -899.25 527.84 -905.28 533.06 -902.27 538.28 -899.25"/>
  <g>
    <path class="st0" d="M141.69-927.82c-.03-.17-.08-.3-.12-.4-.05-.1-.12-.19-.2-.27-.12-.13-.27-.24-.45-.31-.18-.08-.38-.12-.61-.12s-.43.04-.61.12c-.18.08-.33.18-.45.31-.08.08-.15.17-.2.27-.05.11-.09.24-.12.4-.04.17-.05.38-.07.63,0,.25-.02.57-.02.96s0,.7.02.95c0,.25.03.46.07.62.03.17.07.3.12.4.05.1.11.2.2.28.12.13.28.24.45.32.18.08.38.12.61.12.17,0,.32-.04.46-.11.03-.01.05-.02.08-.03h0l-.71-.67-.02-.02.87-.83.45.43.17.17h0c.06-.16.11-.37.12-.63.02-.25.03-.58.03-.99,0-.38,0-.7-.02-.96-.02-.25-.04-.46-.07-.63h.01Z"/>
    <path class="st0" d="M151.09-923.5c1.05-3.81-.99-7.57-4.22-9.58-1.93-1.19-4.19-1.78-6.46-1.78-1.36,0-2.75.22-4.06.67-.02,0-.04.01-.05.02l-.57.21s-.05.02-.06.02c-.19.08-.37.16-.56.24,0,0,0,0-.02.01-1.55.73-2.94,1.79-3.97,3.18-.96,1.3-1.57,2.85-1.65,4.47-.09,1.71.39,3.34,1.27,4.79,1.07,1.77,2.79,3.05,4.66,3.9.21,1.5.42,3,.64,4.5,1.48-1.15,2.97-2.29,4.43-3.47,4.52-.01,9.38-2.59,10.63-7.18h0ZM142.76-921.88l-.76-.7c-.23.14-.48.24-.76.31-.28.08-.59.11-.93.11-.49,0-.92-.07-1.28-.22-.37-.15-.69-.35-.99-.63-.21-.2-.38-.41-.49-.63-.12-.22-.2-.45-.25-.71s-.08-.54-.09-.85-.02-.66-.02-1.04,0-.73.02-1.04c0-.31.04-.59.09-.85.05-.26.13-.5.25-.72.11-.22.28-.43.49-.63.3-.27.62-.48.99-.63.36-.15.79-.22,1.28-.22s.92.07,1.28.22c.36.15.69.35.97.63.21.21.38.41.5.63.11.22.2.46.25.72.02.09.03.18.04.28.02.09.03.18.04.27,0,.1.02.2.02.3,0,.31.02.66.02,1.04,0,.32,0,.62,0,.89s-.03.52-.06.75c-.04.23-.08.44-.15.64-.07.2-.17.38-.3.56l.7.66.03.03-.87.82h-.01Z"/>
    <polygon class="st0" points="156.69 -920.54 158.67 -920.54 157.68 -923.07 156.69 -920.54"/>
    <path class="st0" d="M167.26-922.11c-.16-3.11-2.25-5.74-4.93-7.17-1.71-.9-3.64-1.36-5.57-1.36-1.5,0-3,.28-4.4.83-.05.02-.11.04-.17.06h0c.99,2.1,1.25,4.45.63,6.71-.67,2.46-2.13,4.36-3.95,5.73-.25.19-.51.37-.79.55h0c.64.81,1.43,1.51,2.29,2.08,1.19.77,2.52,1.3,3.91,1.59.71.15,1.45.23,2.19.25.29,0,.33.06.54.24,1.33,1.03,2.65,2.06,3.96,3.09.21-1.44.41-2.88.61-4.31.86-.37,1.66-.87,2.39-1.45.07-.05.13-.11.19-.16.1-.09.2-.17.3-.26.09-.08.17-.17.26-.25.07-.07.14-.14.21-.21.09-.09.17-.18.25-.28l.2-.23c.06-.08.13-.17.19-.25.08-.1.15-.2.22-.31.04-.05.08-.11.12-.17.09-.14.18-.27.26-.41,0-.02.02-.04.04-.06.73-1.26,1.13-2.71,1.06-4.25h-.01ZM159.72-917.71l-.61-1.64h-2.85l-.61,1.64h-1.64l3.06-7.59h1.24l3.06,7.59h-1.65Z"/>
  </g>
  <rect class="st7" x="-84.02" y="-941.19" width="640" height="80"/>
  <g>
    <g>
      <path class="st4" d="M186.25,196.18c-27.68,0-48.9-3.69-49.13-3.73l-.84-.15-.38-.77c-4.58-9.33-7-19.85-7-30.43,0-36.63,28.34-66.43,63.18-66.43s63.18,29.8,63.18,66.43c0,10.57-2.42,21.1-7,30.43l-.4.82-.9.11c-.24.03-24.43,3.07-54.85,3.66-1.98.04-3.94.06-5.86.06h0ZM138.56,189.27c4.51.73,26.53,4,53.49,3.48,26.93-.52,48.92-2.97,53.58-3.52,4.16-8.77,6.26-18.22,6.26-28.12,0-34.77-26.83-63.05-59.81-63.05s-59.81,28.28-59.81,63.05c0,9.91,2.11,19.38,6.28,28.16h0Z"/>
      <path class="st4" d="M250.09,170.37c-2.06-6.56-7.07-9.37-13.81-7.87-.59.13-1.42.37-1.78.09-3.06-2.35-6.04-4.81-9.05-7.23.21-.45.42-.9.62-1.36,3.28,3.86,7.17,5.96,11.99,5.09,5.15-.93,7.42-5.13,10.25-8.85-2.17-1.06-4.02-2.04-5.93-2.9-5.82-2.62-9.25-1.77-13.28,3.22-3.19,3.94-6.71,3.76-9.56-.57,1.43-.97,2.75-2.52,4.32-2.82,5.31-1.04,7.61-5.21,10.54-8.94-3.01-1.5-4.6-3.93-4.79-7.28-.06-1-.19-2.01-.43-2.98-2.3-9.21-10-15.42-19.24-15.58-9.13-.15-16.99,5.91-19.59,15.1-.16.57-.39,1.13-.62,1.78-7.79-9.29-16.15-12-25.17-8.24-4.02,1.68-7.2,4.37-9.45,8.09-3.62,5.96-3.53,12.28-1.35,18.67-3.35.32-6.42.62-9.73.94.66,1.98,1.16,3.74,1.82,5.43,2.83,7.2,8.41,9.53,15.71,6.69.64-.25,1.45-.03,2.18-.03-2.38,1.36-4.81,2.15-7.19,3.06-2.45.94-4.74,1.63-7.04-.51-.72-.67-2.01-.85-3.08-.99-6.52-.84-11.24,2.56-14.07,10.04,1.96.73,3.9,1.5,5.88,2.2,5.93,2.08,9.88,1.08,12.83-4.41,2.45-4.56,6.67-4.78,10.63-5.73.81-.31,1.66-.57,2.54-.78-.82.33-1.68.57-2.54.78-3.43,1.33-6.07,3.63-7.46,7.25-1.81,4.69.5,8.83,2.13,13.07,1.4-.85,2.57-1.57,3.75-2.26,7.45-4.4,8.54-7.2,5.78-15.37-.8-2.37.29-4.37,1.97-5.13,3.57-1.61,7.46-2.53,11.22-3.73.14.24.28.48.43.72-3.7,2.06-7.16,4.42-8.03,8.79-.85,4.22.96,7.94,2.57,11.73,1.35-.79,2.43-1.43,3.56-2.09.32.49.54.78.71,1.09,5.43,9.68,15.82,13.61,25.51,9.65,9.61-3.92,14.34-13.91,11.61-24.44-.18-.69-.44-1.56-.18-2.12,1.57-3.27.77-6.4-.52-9.69.8-.25,1.74-.85,2.11-.6,1.78,1.19,3.79,2.34,4.97,4.03,1.16,1.65.79,3.62-.84,5.45-4.56,5.13-4.56,8.82-.44,14.22,1.25,1.63,2.55,3.23,4.39,5.56,2.12-3.81,4.8-6.99,5.7-10.62,1.37-5.54-2.28-9.46-6.5-12.76,2.59,1.55,4.82,3.39,7.13,5.1,1.63,1.2,2.53,2.56,2.84,4.71.84,5.84,3.28,8.67,8.14,9.32,3,.4,6.09.07,9.37.07-.55-2.19-.95-4.16-1.55-6.07h.02ZM203.66,116.06c5.42-1.92,10.62-1.38,15.5,1.69,3.96,2.5,4.11,2.91,2.99,7.83-7.24-3.6-14.63-5.97-22.6-2.32-.48-4.65.15-5.8,4.11-7.2ZM198.83,166.34c.26.29.52.57.78.86-1.36,2.27-2.72,4.53-4.32,7.2-1.26-1.61-2.19-2.8-3.57-4.58,2.55-1.25,4.83-2.36,7.12-3.48h0ZM190.74,166.41c-.42-1.3-.93-2.89-1.52-4.7,4.57-1.56,8.79-1.32,12.97.79-3.83,1.31-7.49,2.56-11.45,3.91ZM198.31,174.93c1.28-2.58,2.82-5.03,3.95-7.67,1.17-2.74,3.26-.95,5.26-1.6-1.22,5.08-3.65,8.66-7.66,11.09-.49.3-1.26.15-1.9.2.11-.68.05-1.43.34-2.02h.01ZM181.55,160.65c3.03-6.14,10.31-9.44,18.07-8.18,6.94,1.12,12.83,7.2,13.72,14.13-13.33-10.85-17.4-10.41-31.79-5.95h0ZM205.52,132.83c0-.34,0-.68,0-1.02,2.58-.56,5.16-1.13,8.52-1.86-.53,2.42-.85,3.89-1.28,5.86-2.64-1.09-4.94-2.03-7.23-2.97h0ZM211.07,138.8c-.74,1.23-1.62,2.7-2.59,4.31-4.15-2.61-6.88-5.85-8.12-10.26,3.54,1.97,7.04,3.91,10.7,5.94h0ZM216.89,126.81c5,1.37,5.16,1.7,3.41,6.17-1.83,4.67-4.28,8.86-8.91,11.48,3.36-5.42,6.09-11,5.5-17.65ZM212.9,125.15c.6.18.96,1.13,1.4,1.7-4.26,1.01-7.86,1.86-11.46,2.71-.07.29-.14.58-.21.87-1.04-1.1-2.08-2.2-3.37-3.55,4.58-2.67,9.01-3.16,13.64-1.72h0ZM196.53,121.24c-1.42,13.77,4.32,22.86,16.54,28.08-7.97,1.54-14.93-1.69-18.64-8.25-3.53-6.24-2.9-13.97,2.1-19.84h0ZM191.9,143.8c1.96,1.75,4.24,3.8,6.35,5.68-2.78.32-5.9.67-8.95,1.02.96-2.46,1.97-5.06,2.61-6.7h-.01ZM184.81,127.34c4.73,4.8,6.67,13.79,3.2,18.8-5.66-15.97-8.1-18.25-23.48-21.99,5.93-3.8,14.82-2.34,20.28,3.2h0ZM174.81,143.05h-5.71c1.13-2.75,2.13-5.21,3.14-7.68.4.07.8.15,1.19.22.44,2.38.88,4.77,1.38,7.46h0ZM174.5,130.56c4.04,1.97,6.59,5.33,8.37,9.82-1.62.62-3.18,1.22-4.73,1.81-1.23-3.93-2.4-7.69-3.63-11.64h0ZM169.33,135.11c-1.38,1.48-1.69,3.95-2.56,5.94-.25.56-.76,1.01-1.15,1.52-.41-.58-1.13-1.13-1.19-1.75-.46-4.68,1-8.76,4.15-12.4,2.37,2.17,3.26,4.01.75,6.7h0ZM183.37,143.48c.12.24.23.48.35.72-2.05,1.29-3.98,2.84-6.17,3.79-2.32,1.01-4.86,1.58-7.36,2.09-4.08.84-4.8.15-4.94-4.65,6.46,1.93,12.32.27,18.11-1.96h0ZM156.18,146.6c-2.34-5.51-2.02-10.89,1.02-16.06,2.19-3.73,3.09-4.04,8.11-2.91-5.24,7.05-4.53,14.71-2.4,22.46-4.41.55-5.16.18-6.73-3.5h0ZM162.08,153.65c8.44-.26,16.12-1.18,22.5-6.41,1.57,2.8,1.49,3.45-.63,5.35-5.99,5.36-14.94,5.97-21.87,1.06ZM179.05,166.87c.29-1.24,1.89-2.18,3.24-3.04.17,8.61,3.7,15.53,8.68,22.28-8.25-2.38-13.78-11.37-11.92-19.24ZM188.88,177.31c-2.75-5.39-3.57-9.62-2.54-14.28,1.79,6.06,4.14,11.73,9.29,15.83-4.37,2.64-4.66,2.56-6.75-1.54h0ZM212.59,176c-2.6,6.42-7.49,9.91-14.2,11.12-2.94.53-3.88-1.73-5.38-3.57,7.5-3.08,14.34-6.69,16.8-15.11,3.82,2.24,4.34,3.7,2.78,7.55h0ZM214.59,146.3c6.44-5.34,9.17-12.57,10.89-20.98,2.19,4.14,2.15,7.98,1.12,11.87-1.02,3.83-3.31,6.83-6.36,9.36-1.98,1.64-3.67,1.5-5.64-.24h0Z"/>
    </g>
    <polyline class="st6" points="161.54 220.63 184.55 240.01 242.7 200.03"/>
    <g>
      <path class="st8" d="M176.64,312.97h-58.39c-19.41,0-35.21-15.79-35.21-35.2V52.89c0-19.41,15.79-35.2,35.21-35.2h152.92c19.41,0,35.2,15.79,35.2,35.2v188.14c0,3.79-3.07,6.86-6.86,6.86s-6.86-3.07-6.86-6.86V52.89c0-11.85-9.64-21.49-21.49-21.49H118.25c-11.85,0-21.49,9.64-21.49,21.49v224.88c0,11.85,9.64,21.49,21.49,21.49h58.39c3.79,0,6.86,3.07,6.86,6.86s-3.07,6.86-6.86,6.86h0Z"/>
      <path class="st8" d="M299.51,72.91H89.9c-2.53,0-4.57-2.05-4.57-4.57s2.05-4.57,4.57-4.57h209.61c2.53,0,4.57,2.05,4.57,4.57s-2.05,4.57-4.57,4.57Z"/>
      <path class="st8" d="M207.78,270.2h-112.89c-2.53,0-4.57-2.05-4.57-4.57s2.05-4.57,4.57-4.57h112.89c2.53,0,4.57,2.05,4.57,4.57s-2.05,4.57-4.57,4.57Z"/>
      <path class="st8" d="M320.88,387.51h-68.81c-4.05,0-8.03-1.08-11.52-3.11-14.52-8.47-17.45-12.07-18.41-13.26h0c-5.38-6.61-9.06-16.55-12.95-27.06-4.07-10.98-8.27-22.33-14.34-29.78-6.86-8.43-9.59-19.81-6.79-28.31,1.65-5.01,5.23-8.55,9.82-9.74,8.79-2.26,18.89.63,29.2,8.37.04.03.07.05.11.08v-84.44c0-7.54,3.78-14.02,10.37-17.79,7.77-4.44,18.05-4.45,25.6-.02,6.24,3.67,9.77,9.97,9.69,17.3-.18,15.12-.1,38.8-.04,51.18,8.57-.71,15.88,1.57,21.82,6.81,9.26-2.49,20.04.04,27.22,6.47,5.83-.48,12,1.35,17.18,5.21,7.71,5.74,12.14,14.78,12.14,24.8v51.1c0,17.02-10.59,30.25-16.91,36.62-3.56,3.6-8.31,5.58-13.36,5.58h-.02ZM201.43,289.49c-1.26,1.51-1.38,9.46,4.05,16.14,7.5,9.22,12.1,21.65,16.56,33.67,3.49,9.42,6.79,18.33,10.74,23.18.86,1.06,4.92,4.37,14.68,10.06,1.39.81,2.99,1.24,4.61,1.24h68.81c1.36,0,2.65-.54,3.61-1.51,4.83-4.88,12.93-14.86,12.93-26.97v-51.1c0-5.64-2.41-10.67-6.61-13.79-3.05-2.27-6.58-3.11-9.44-2.25-2.7.81-5.61-.11-7.35-2.32-3.84-4.86-12.62-6.82-18.06-4.03-2.85,1.47-6.34.76-8.4-1.71-3.32-3.97-8.25-7.6-19.74-4.38-2.06.58-4.27.16-5.98-1.13-1.71-1.29-2.72-3.3-2.73-5.43,0-.38-.25-38.34,0-59.59.03-2.44-.9-4.13-2.92-5.31-3.28-1.93-8.37-1.89-11.83.1-2.33,1.33-3.46,3.26-3.46,5.89v100.22c0,2.89-1.81,5.47-4.53,6.45s-5.76.15-7.61-2.08c-3.96-4.75-17.47-17.74-27.33-15.35h0Z"/>
    </g>
    <path class="st5" d="M201.43,289.49c-1.26,1.51-1.38,9.46,4.05,16.14,7.5,9.22,12.1,21.65,16.56,33.67,3.49,9.42,6.79,18.33,10.74,23.18.86,1.06,4.92,4.37,14.68,10.06,1.39.81,2.99,1.24,4.61,1.24h68.81c1.36,0,2.65-.54,3.61-1.51,4.83-4.88,12.93-14.86,12.93-26.97v-51.1c0-5.64-2.41-10.67-6.61-13.79-3.05-2.27-6.58-3.11-9.44-2.25-2.7.81-5.61-.11-7.35-2.32-3.84-4.86-12.62-6.82-18.06-4.03-2.85,1.47-6.34.76-8.4-1.71-3.32-3.97-8.25-7.6-19.74-4.38-2.06.58-4.27.16-5.98-1.13-1.71-1.29-2.72-3.3-2.73-5.43,0-.38-.25-38.34,0-59.59.03-2.44-.9-4.13-2.92-5.31-3.28-1.93-8.37-1.89-11.83.1-2.33,1.33-3.46,3.26-3.46,5.89v100.22c0,2.89-1.81,5.47-4.53,6.45s-5.76.15-7.61-2.08c-3.96-4.75-17.47-17.74-27.33-15.35h0Z"/>
  </g>
</svg>