<?xml version="1.0" encoding="UTF-8"?>
<svg id="_レイヤー_1" data-name="レイヤー_1" xmlns="http://www.w3.org/2000/svg" version="1.1" viewBox="0 0 400 400">
  <!-- Generator: Adobe Illustrator 29.3.1, SVG Export Plug-In . SVG Version: 2.1.0 Build 151)  -->
  <defs>
    <style>
      .st0 {
        fill: #e97698;
      }

      .st1 {
        fill: #fff;
      }

      .st2 {
        fill: #757677;
      }
    </style>
  </defs>
  <g>
    <path class="st2" d="M343.67,319.42H127.66c-17.85,0-32.38-14.53-32.38-32.38v-142.16c0-17.85,14.53-32.38,32.38-32.38h216c17.85,0,32.38,14.53,32.38,32.38v142.16c0,17.85-14.53,32.38-32.38,32.38ZM127.66,129.27c-8.61,0-15.61,7-15.61,15.61v142.16c0,8.61,7,15.61,15.61,15.61h216c8.61,0,15.61-7,15.61-15.61v-142.16c0-8.61-7-15.61-15.61-15.61H127.66Z"/>
    <path class="st2" d="M235.66,310.19c-4.63,0-8.39-3.76-8.39-8.39v-173.53c0-4.63,3.76-8.39,8.39-8.39s8.39,3.76,8.39,8.39v173.53c0,4.63-3.76,8.39-8.39,8.39Z"/>
    <path class="st2" d="M364.9,229.01H103.67c-4.63,0-8.39-3.76-8.39-8.39s3.76-8.39,8.39-8.39h261.23c4.63,0,8.39,3.76,8.39,8.39s-3.76,8.39-8.39,8.39Z"/>
    <path class="st0" d="M232.09,104.95c-3.77,0-13.83-.14-25.09-1.51-20.38-2.46-33.69-7.45-40.7-15.24-7.93-8.82-11.95-20.19-11.32-32.03.63-11.84,5.83-22.72,14.65-30.65,8.82-7.93,20.18-11.95,32.03-11.32,11.84.63,22.72,5.83,30.65,14.65h0c7.01,7.79,10.56,21.56,10.85,42.08.2,14.09-1.27,26.15-1.33,26.66-.51,4.15-4,7.28-8.18,7.35-.1,0-.64.01-1.56.01ZM233.51,96.55h.01-.01ZM199.28,30.91c-6.82,0-13.32,2.48-18.43,7.08-5.49,4.93-8.72,11.7-9.11,19.07-.39,7.37,2.11,14.44,7.04,19.93,6.46,7.18,29.32,10.58,47.13,11.13,1.34-17.79.37-40.89-6.07-48.05h0c-4.93-5.48-11.7-8.72-19.07-9.11-.5-.03-1-.04-1.5-.04Z"/>
    <path class="st0" d="M300.81,89.01c-1.75,0-3.52-.55-5.03-1.68-3.7-2.78-4.45-8.04-1.67-11.74,8.16-10.85,7.09-26.33-2.49-35.99-9.55-9.63-24.98-10.87-35.9-2.87-3.73,2.74-8.98,1.93-11.72-1.81-2.74-3.74-1.93-8.98,1.81-11.72,17.57-12.87,42.38-10.9,57.73,4.59,15.39,15.53,17.11,40.42,3.99,57.88-1.65,2.19-4.16,3.35-6.71,3.35Z"/>
  </g>
  <g>
    <path class="st1" d="M135.55,380.19c-53.85,0-95.15-7.12-95.59-7.2l-1.64-.29-.74-1.49c-8.92-18.02-13.63-38.35-13.63-58.77,0-70.74,55.15-128.3,122.94-128.3s122.94,57.55,122.94,128.3c0,20.42-4.71,40.74-13.63,58.77l-.78,1.58-1.75.22c-.47.06-47.54,5.93-106.71,7.06-3.86.07-7.66.11-11.41.11Z"/>
    <g>
      <path class="st0" d="M135.55,380.3c-53.85,0-95.15-7.17-95.59-7.25l-1.64-.29-.74-1.5c-8.92-18.16-13.63-38.63-13.63-59.21,0-71.27,55.15-129.25,122.94-129.25s122.94,57.98,122.94,129.25c0,20.57-4.71,41.05-13.63,59.21l-.78,1.59-1.75.22c-.47.06-47.54,5.98-106.71,7.12-3.86.07-7.66.11-11.41.11ZM42.75,366.86c8.78,1.41,51.62,7.78,104.08,6.77,52.4-1.01,95.19-5.78,104.25-6.85,8.09-17.06,12.18-35.46,12.18-54.71,0-67.65-52.2-122.68-116.37-122.68s-116.37,55.03-116.37,122.68c0,19.28,4.11,37.71,12.22,54.79Z"/>
      <path class="st0" d="M259.77,330.09c-4.01-12.76-13.75-18.24-26.86-15.31-1.14.25-2.76.72-3.47.18-5.96-4.57-11.76-9.36-17.61-14.08.4-.88.81-1.76,1.21-2.64,6.39,7.51,13.95,11.6,23.33,9.9,10.03-1.81,14.43-9.97,19.94-17.21-4.21-2.07-7.82-3.97-11.54-5.64-11.33-5.09-17.99-3.44-25.83,6.26-6.2,7.67-13.05,7.31-18.6-1.1,2.79-1.9,5.36-4.9,8.4-5.49,10.34-2.02,14.8-10.14,20.5-17.4q-8.77-4.38-9.32-14.16c-.11-1.94-.36-3.91-.83-5.79-4.48-17.92-19.45-30.01-37.43-30.31-17.76-.3-33.05,11.49-38.12,29.38-.32,1.12-.77,2.19-1.22,3.47-15.16-18.09-31.43-23.34-48.98-16.03-7.82,3.26-14,8.5-18.39,15.73-7.04,11.6-6.86,23.89-2.63,36.33-6.52.63-12.49,1.21-18.94,1.83,1.28,3.86,2.25,7.28,3.54,10.57,5.52,14.01,16.36,18.54,30.57,13.01,1.24-.48,2.83-.06,4.25-.06-4.63,2.65-9.36,4.19-13.99,5.96-4.76,1.82-9.22,3.16-13.7-.99-1.4-1.3-3.91-1.66-5.98-1.93-12.68-1.62-21.87,4.98-27.38,19.54,3.81,1.43,7.6,2.92,11.44,4.27,11.53,4.06,19.22,2.09,24.96-8.58,4.77-8.87,12.97-9.3,20.69-11.15,1.57-.61,3.22-1.11,4.95-1.52-1.6.64-3.26,1.11-4.95,1.52-6.67,2.58-11.81,7.06-14.52,14.11-3.52,9.12.97,17.17,4.15,25.43,2.73-1.65,5.01-3.05,7.3-4.4,14.49-8.57,16.61-14,11.24-29.91-1.55-4.61.56-8.5,3.83-9.97,6.95-3.13,14.52-4.92,21.83-7.25.28.47.55.94.83,1.41-7.19,4.01-13.93,8.6-15.63,17.1-1.64,8.22,1.86,15.45,5.01,22.83,2.63-1.55,4.72-2.77,6.93-4.07.63.95,1.05,1.51,1.39,2.11,10.56,18.83,30.78,26.48,49.63,18.78,18.69-7.63,27.91-27.07,22.59-47.55-.35-1.34-.86-3.04-.34-4.12,3.06-6.37,1.49-12.45-1.01-18.86,1.56-.48,3.39-1.65,4.11-1.17,3.46,2.32,7.37,4.56,9.67,7.84,2.25,3.21,1.54,7.04-1.63,10.6-8.87,9.99-8.87,17.15-.86,27.68,2.42,3.18,4.95,6.28,8.54,10.81,4.13-7.41,9.35-13.61,11.1-20.67,2.67-10.78-4.43-18.41-12.65-24.83,5.04,3.02,9.37,6.59,13.88,9.92,3.17,2.34,4.92,4.98,5.52,9.16,1.64,11.35,6.38,16.86,15.84,18.14,5.83.79,11.85.15,18.24.15-1.07-4.26-1.85-8.1-3.01-11.81ZM169.42,224.41c10.55-3.73,20.66-2.69,30.16,3.29,7.71,4.86,8,5.66,5.81,15.24-14.09-7.01-28.47-11.62-43.96-4.52-.94-9.05.3-11.29,7.99-14.01ZM160.02,322.25c.51.56,1.01,1.11,1.52,1.67-2.65,4.41-5.3,8.82-8.41,14.01-2.45-3.14-4.26-5.45-6.95-8.9,4.97-2.43,9.41-4.6,13.85-6.77ZM144.28,322.38c-.81-2.53-1.81-5.62-2.95-9.15,8.9-3.04,17.1-2.56,25.24,1.54-7.45,2.54-14.58,4.98-22.29,7.61ZM159.02,338.95c2.49-5.01,5.5-9.79,7.69-14.93,2.28-5.33,6.34-1.85,10.24-3.11-2.38,9.89-7.09,16.85-14.9,21.57-.96.58-2.45.29-3.69.4.21-1.32.1-2.79.67-3.93ZM126.41,311.18c5.89-11.95,20.06-18.36,35.17-15.92,13.5,2.18,24.97,14,26.69,27.5-25.93-21.1-33.85-20.25-61.86-11.58ZM173.05,257.04c0-.66-.02-1.33-.03-1.99,5.02-1.1,10.05-2.2,16.58-3.63-1.02,4.71-1.65,7.57-2.48,11.4-5.14-2.12-9.6-3.95-14.07-5.79ZM183.85,268.66c-1.43,2.39-3.15,5.25-5.04,8.39-8.08-5.09-13.4-11.39-15.79-19.95,6.9,3.83,13.69,7.61,20.83,11.57ZM195.16,245.32c9.73,2.66,10.04,3.3,6.64,12-3.56,9.09-8.33,17.24-17.34,22.33,6.54-10.54,11.85-21.39,10.7-34.33ZM187.41,242.1c1.16.36,1.86,2.2,2.73,3.3-8.29,1.96-15.3,3.62-22.3,5.28-.14.56-.27,1.12-.41,1.69-2.03-2.14-4.05-4.27-6.56-6.91,8.9-5.19,17.53-6.14,26.55-3.35ZM155.55,234.5c-2.76,26.8,8.41,44.49,32.19,54.64-15.51,3-29.06-3.29-36.27-16.04-6.87-12.14-5.64-27.17,4.08-38.6ZM146.55,278.38c3.81,3.41,8.25,7.39,12.35,11.06-5.42.62-11.48,1.3-17.42,1.98,1.86-4.79,3.83-9.85,5.07-13.03ZM132.75,246.36c9.2,9.34,12.98,26.82,6.23,36.58-11.02-31.08-15.76-35.52-45.68-42.8,11.53-7.39,28.84-4.55,39.45,6.22ZM113.29,276.94h-11.11c2.19-5.35,4.15-10.14,6.11-14.94.77.14,1.55.29,2.32.43.86,4.64,1.71,9.27,2.68,14.51ZM112.69,252.62c7.85,3.83,12.82,10.37,16.28,19.11-3.14,1.2-6.18,2.37-9.21,3.53-2.39-7.64-4.68-14.97-7.07-22.64ZM102.63,261.47c-2.69,2.88-3.29,7.68-4.98,11.55-.48,1.1-1.47,1.97-2.23,2.95-.8-1.13-2.19-2.21-2.31-3.41-.89-9.1,1.95-17.04,8.07-24.13,4.61,4.22,6.34,7.8,1.46,13.03ZM129.94,277.77c.23.47.46.94.68,1.41-3.98,2.51-7.74,5.53-12,7.38-4.52,1.96-9.46,3.07-14.31,4.07-7.93,1.63-9.34.29-9.61-9.05,12.56,3.75,23.97.53,35.25-3.81ZM77.05,283.84c-4.55-10.71-3.92-21.2,1.99-31.24,4.27-7.26,6.02-7.87,15.78-5.65-10.19,13.71-8.81,28.62-4.67,43.7-8.57,1.07-10.05.36-13.09-6.81ZM88.51,297.55c16.42-.51,31.36-2.3,43.78-12.47,3.06,5.44,2.9,6.72-1.23,10.41-11.66,10.43-29.07,11.61-42.55,2.07ZM121.55,323.27c.57-2.42,3.67-4.25,6.31-5.91.33,16.75,7.21,30.21,16.89,43.35-16.06-4.63-26.8-22.12-23.19-37.44ZM140.66,343.58c-5.35-10.49-6.94-18.73-4.93-27.79,3.48,11.8,8.05,22.83,18.07,30.79-8.51,5.14-9.06,4.99-13.13-3.01ZM186.79,341.04c-5.06,12.5-14.58,19.29-27.63,21.64-5.72,1.03-7.55-3.36-10.47-6.94,14.6-6,27.91-13.02,32.68-29.4,7.43,4.36,8.45,7.19,5.42,14.7ZM190.7,283.26c12.53-10.39,17.84-24.47,21.18-40.82,4.25,8.05,4.18,15.52,2.17,23.09-1.98,7.46-6.44,13.29-12.38,18.2-3.86,3.19-7.14,2.92-10.97-.47Z"/>
    </g>
  </g>
</svg>