<?xml version="1.0" encoding="UTF-8"?><svg xmlns="http://www.w3.org/2000/svg" viewBox="0 0 36 36"><defs><style>.cls-1{fill-rule:evenodd;}.cls-1,.cls-2,.cls-3{stroke-width:0px;}.cls-1,.cls-3{fill:#bb9e79;}.cls-2{fill:#fff;}</style></defs><circle class="cls-3" cx="18.00001" cy="18" r="5.0293"/><rect class="cls-3" x="17.49607" y="3.89949" width="1.00837" height="1.00837" transform="translate(2.17525 14.04582) rotate(-45.10099)"/><rect class="cls-3" x="17.49607" y="31.11389" width="1.00837" height="1.00837" transform="translate(-17.09541 22.02608) rotate(-45.06083)"/><rect class="cls-3" x="3.88927" y="17.50724" width="1.00767" height="1.00767" transform="translate(-11.45925 8.39852) rotate(-45.06077)"/><rect class="cls-3" x="31.10293" y="17.50708" width="1.00798" height="1.00798" transform="translate(-3.4783 27.62479) rotate(-45)"/><path class="cls-3" d="M17.99901,27.7754c-5.39011,0-9.77441-4.3848-9.77441-9.7759,0-5.3906,4.3843-9.7759,9.77441-9.7759,5.39059,0,9.77639,4.3853,9.77639,9.7759,0,5.3911-4.3858,9.7759-9.77639,9.7759ZM17.99901,8.3799c-5.30271,0-9.61861,4.3159-9.61861,9.6196,0,5.3047,4.3159,9.6206,9.61861,9.6206,5.30469,0,9.62109-4.3159,9.62109-9.6206,0-5.3037-4.3164-9.6196-9.62109-9.6196Z"/><path class="cls-3" d="M18.00001,29.1221c-6.13281,0-11.12161-4.9893-11.12161-11.1226,0-6.1323,4.9888-11.1216,11.12161-11.1216s11.12109,4.9893,11.12109,11.1216c0,6.1333-4.9883,11.1226-11.12109,11.1226ZM18.00001,7.0332c-6.04691,0-10.96581,4.9199-10.96581,10.9663,0,6.0479,4.9189,10.9673,10.96581,10.9673s10.96579-4.9194,10.96579-10.9673c0-6.0464-4.9189-10.9663-10.96579-10.9663Z"/><path class="cls-3" d="M18.00101,31.6802c-7.544,0-13.68071-6.1372-13.68071-13.6807,0-7.5425,6.13671-13.6792,13.68071-13.6792,7.542,0,13.67869,6.1367,13.67869,13.6792,0,7.5435-6.13669,13.6807-13.67869,13.6807ZM18.00101,4.4766c-7.458,0-13.52391,6.0659-13.52391,13.5229,0,7.458,6.06591,13.5239,13.52391,13.5239,7.457,0,13.52339-6.0659,13.52339-13.5239,0-7.457-6.06639-13.5229-13.52339-13.5229Z"/><path class="cls-3" d="M18.00001,27.1289c-5.03371,0-9.12841-4.0952-9.12841-9.1289s4.0947-9.1294,9.12841-9.1294c5.03419,0,9.12989,4.0957,9.12989,9.1294s-4.0957,9.1289-9.12989,9.1289ZM18.00001,9.0264c-4.94871,0-8.97311,4.0254-8.97311,8.9736s4.0244,8.9736,8.97311,8.9736c4.94819,0,8.97359-4.0254,8.97359-8.9736s-4.0254-8.9736-8.97359-8.9736Z"/><path class="cls-3" d="M4.4399,17.0303h-.0053c-.044-.0025-.0762-.0406-.0723-.083.2285-3.1895,1.6641-6.3223,3.9395-8.5943,2.2607-2.2866,5.38621-3.7387,8.57421-3.9848.04879-.0069.08149.0297.084.0722.00289.043-.02841.0806-.07181.083-3.1524.2432-6.2403,1.6787-8.4756,3.939-2.248,2.2471-3.6694,5.3428-3.896,8.4961-.0029.041-.0371.0718-.0767.0718Z"/><path class="cls-3" d="M4.4307,15.8525c.0009.001-.5235-.0258-.8955.2486-.3755.2759-.4375.7436-.4366.7436,0,0,.5186-.0322.88241-.3056.35979-.273.44869-.6856.44969-.6866"/><path class="cls-3" d="M4.7007,15.895s.498.1436.792.461c.2934.3169.2876.6923.2886.6928.0009,0-.5142-.0879-.8179-.4082-.3052-.3222-.2647-.747-.2627-.7456"/><path class="cls-3" d="M4.6719,14.6606c.001.0015-.5186-.0727-.9131.1685-.3994.2402-.502.7031-.5015.7012,0,.0019.52.0141.9058-.2256.3823-.2402.5083-.6426.5088-.6441"/><path class="cls-3" d="M4.9365,14.7266c.003-.0005.4824.187.75051.5293.26269.3408.22409.7148.22409.7168.0015-.0015-.5014-.1343-.7773-.481-.2759-.3462-.1973-.7661-.1973-.7651"/><path class="cls-3" d="M5.01901,13.4951c.002.001-.51071-.1181-.92521.086-.418.2045-.5625.6552-.5625.6543.0009.0009.518.0605.9233-.1446.4033-.2055.5625-.5952.56441-.5957"/><path class="cls-3" d="M5.2773,13.584c.001-.0005.4654.2295.6983.5942.23441.3638.1611.732.1611.7329.001-.0005-.4888-.1772-.7329-.5468-.2422-.3702-.1265-.7813-.1265-.7803"/><path class="cls-3" d="M5.4688,12.3643c.0009.0019-.4986-.1631-.92879.0039-.435.166-.61911.6025-.61811.601,0,.0015.5097.107.9316-.062.4199-.1675.6143-.542.6153-.5429"/><path class="cls-3" d="M5.7178,12.4766c.0005-.0005.4428.2695.6426.6538.2011.3833.0957.7431.0957.7431,0,0-.4712-.2192-.6822-.6084-.207-.3911-.0561-.79-.0561-.7885"/><path class="cls-3" d="M6.0166,11.2788c0,.0015-.4814-.2065-.9253-.0796-.4477.127-.6699.5459-.6699.5449,0,.001.4985.1514.93461.0205.43259-.1298.65959-.4843.66059-.4858"/><path class="cls-3" d="M6.2549,11.4126c.0019,0,.4165.3076.583.7085.1645.3994.0278.7485.0278.7505,0-.0015-.44969-.2632-.6235-.668-.1738-.4087.0127-.7934.0127-.791"/><path class="cls-3" d="M6.6592,10.2451c.001.002-.4614-.2475-.9155-.1601-.4571.0869-.7154.4843-.7144.4829,0,.0014.4839.1948.92771.104.44339-.0918.70069-.4258.70219-.4268"/><path class="cls-3" d="M6.8843,10.4004c.0019,0,.3886.3433.518.7573.1294.4121-.039.7476-.039.749,0-.0014-.42429-.3003-.5625-.7212-.1367-.4218.0835-.7871.0835-.7851"/><path class="cls-3" d="M7.3911,9.2734c0,.002-.4385-.2876-.8974-.2412-.4644.0464-.7549.4195-.7549.4175,0,.002.4633.2378.914.1865.4497-.0517.7364-.3618.7383-.3628"/><path class="cls-3" d="M7.6001,9.4468c.002,0,.3574.3769.4497.8003.0918.4223-.1035.7426-.1055.7441.002-.0005-.396-.3369-.4951-.7681-.0996-.4326.1529-.7783.1509-.7763"/><path class="cls-3" d="M8.2036,8.3691c0,.0025-.4092-.3237-.87159-.3183-.46631.0049-.789.3496-.78811.3496,0,.001.44.2768.8946.2651.4521-.0122.7651-.2949.7651-.2964"/><path class="cls-3" d="M8.3984,8.561c.002,0,.3223.4073.378.8369.0527.4278-.17139.73-.17139.732.00189-.0005-.36531-.3716-.42581-.8091-.061-.4395.2202-.7617.2192-.7598"/><path class="cls-3" d="M9.0933,7.5405c0,.0015-.3789-.3598-.8399-.395-.4643-.0361-.8169.2798-.8159.2793,0,.002.4146.3145.8677.3428.4516.0283.7876-.2266.7876-.2266"/><path class="cls-3" d="M9.27101,7.748c.00189,0,.28519.4346.30179.8672.0166.4312-.2334.7129-.2334.7139.0019,0-.3311-.4023-.354-.8433-.0225-.4428.28561-.7387.28561-.7378"/><path class="cls-3" d="M10.0537,6.793c-.001.0014-.34569-.3902-.80269-.4668-.46-.0772-.83841.207-.83641.207,0,.001.3847.3486.83441.4175.44579.0679.80279-.1568.80469-.1577"/><path class="cls-3" d="M10.2119,7.0156c.002,0,.24511.4585.22511.8902-.02441.4311-.29541.6894-.29741.6909.003,0-.2939-.4307-.2763-.8711.0166-.4434.3496-.711.3486-.71"/><path class="cls-3" d="M11.0752,6.1328c0,.0015-.3091-.4189-.7588-.5356-.4502-.1172-.853.1323-.8511.1323,0,.0015.3516.3813.794.4893.4404.1074.8139-.0855.8159-.086"/><path class="cls-3" d="M11.2129,6.3682c.0019,0,.2046.479.1455.9072-.061.4277-.3535.6611-.3555.6621.002.0005-.2573-.4541-.1997-.8926.0557-.4399.4107-.6767.4097-.6767"/><path class="cls-3" d="M12.1519,5.5674c-.0005.0005-.272-.4463-.7076-.6016-.4394-.1572-.86229.0567-.86029.0567,0,0,.31639.4101.74849.5576.4273.1455.8189-.0127.8194-.0127"/><path class="cls-3" d="M12.2676,5.814c.0019,0,.1621.4946.0639.915-.0971.4204-.4096.6274-.4116.6284.003.0005-.2158-.4761-.1201-.9067.09521-.4331.4697-.6372.4678-.6367"/><path class="cls-3" d="M13.2744,5.0981c-.001.0015-.2305-.4677-.65139-.6621-.42381-.1948-.86421-.019-.86231-.0195,0,0,.27931.437.6949.6221.4145.1826.8178.0595.8188.0595"/><path class="cls-3" d="M13.3677,5.3545c.0019.0005.1177.5073-.0166.917-.1353.4101-.4654.5889-.4663.5889.0019.0009-.1719-.4927-.0406-.9131.1333-.4229.5254-.5938.5235-.5928"/><path class="cls-3" d="M14.4346,4.7314c-.001.0015-.188-.4868-.5913-.7172-.4034-.2329-.8575-.0972-.856-.0972-.001.0019.2398.46.63771.6826.396.2188.80759.1318.80959.1318"/><path class="cls-3" d="M14.5049,4.9951c.0019.001.0722.5156-.0991.9126-.1714.396-.5152.544-.5162.5449.002.0005-.1289-.5068.0406-.9135.1714-.4097.5766-.545.5747-.544"/><path class="cls-3" d="M15.6226,4.4697c-.001.0005-.1455-.5019-.524-.7666-.3818-.2685-.8471-.1743-.8457-.1743,0,.0025.1983.481.5747.7368.3745.253.794.2041.795.2041"/><path class="cls-3" d="M15.6694,4.7383c.002.001.0249.5195-.1801.8999-.2066.3784-.5616.4956-.5635.4966.0019.0009-.0816-.5152.123-.9053.2051-.3936.6226-.4922.6206-.4912"/><path class="cls-3" d="M16.8276,4.314c0,.0014-.09759-.5137-.4531-.8111-.3559-.2988-.8271-.247-.8252-.2461-.0019,0,.1533.4952.5049.7832.3516.2857.7734.274.7734.274"/><path class="cls-3" d="M16.8521,4.5859c.00091.0015-.0225.5181-.2603.8804-.23779.3599-.604.4439-.604.4448,0,0-.0371-.5205.2026-.8916.2398-.374.66261-.4341.6617-.4336"/><path class="cls-3" d="M31.5576,17.0781c-.042,0-.0752-.0312-.0781-.0722-.2168-3.1534-1.6231-6.2549-3.8662-8.5103-2.2256-2.2681-5.3106-3.7139-8.4619-3.9673-.042-.0034-.0733-.041-.0703-.084.00291-.0429.041-.0732.08391-.0713,3.18659.2564,6.30769,1.7193,8.56059,4.0137,2.2666,2.2803,3.69241,5.418,3.9082,8.6084.0039.043-.0283.0796-.0723.083h-.0039Z"/><path class="cls-3" d="M20.2588,4.4512c-.001.0009.0303-.5225-.2422-.897-.2705-.3789-.7402-.4448-.7383-.4434-.0019.0015.0274.5191.2969.8843.2705.3623.6826.4551.6836.4561"/><path class="cls-3" d="M20.2139,4.7197c.0009.0025-.1485.4976-.4668.7901-.3194.2895-.6953.2817-.6973.2822.001.001.0938-.5137.418-.8135.32221-.3042.748-.2588.7461-.2588"/><path class="cls-3" d="M21.4492,4.7026c-.0019.002.0752-.5185-.1611-.9145-.2383-.4004-.6983-.5083-.6963-.5068-.002.0009-.0195.5205.2168.9072.2383.3847.6387.5136.6406.5141"/><path class="cls-3" d="M21.3809,4.9673c0,.0024-.1905.4809-.5362.7446-.34269.2612-.7168.2193-.71769.2193.00089.0009.13759-.5025.48529-.7745.3496-.2729.7705-.1894.7686-.1894"/><path class="cls-3" d="M22.6123,5.0596c-.0019.0009.1221-.5098-.0791-.9253-.20019-.4204-.6514-.5684-.6504-.5679-.001,0-.0644.5171.1367.9238.2032.4053.5918.5684.5928.5694"/><path class="cls-3" d="M22.5195,5.3174c.001.0014-.2334.4619-.5996.6933-.3652.2305-.7324.1553-.7344.1548.002.0005.1807-.4873.5528-.728.3721-.2393.7842-.1201.7812-.1201"/><path class="cls-3" d="M23.7393,5.519c-.003.001.165-.4965.0029-.9287-.1611-.437-.5977-.624-.5967-.6225-.001-.001-.1094.5093.0537.9316.1651.4219.5381.6182.5401.6196"/><path class="cls-3" d="M23.62301,5.7676c.001.0014-.27241.4394-.65821.6367-.3857.1973-.7441.0884-.746.0884.0019,0,.2246-.4683.61621-.6748.39249-.2056.791-.0503.788-.0503"/><path class="cls-3" d="M24.8184,6.0771c-.002.0005.2109-.4804.0879-.9248-.1241-.4497-.5391-.6748-.5381-.6743-.001-.0005-.1553.4976-.0303.9331.126.4346.4805.6646.4805.666"/><path class="cls-3" d="M24.6836,6.3135c.001.0019-.3115.414-.7148.5766-.4004.1621-.7481.0225-.75.022.0019.0005.2666-.4477.6748-.6182.4082-.1709.7919.0196.79.0196"/><path class="cls-3" d="M25.8467,6.7275c-.002.001.251-.4589.1679-.913-.082-.4581-.4775-.7203-.4765-.7188-.001-.001-.1992.4814-.1113.9268.0878.4433.4189.705.4199.705"/><path class="cls-3" d="M25.6904,6.9521c0,.0015-.3476.3838-.7627.5108-.414.126-.748-.0444-.749-.0454,0,.001.3037-.4219.7256-.5562.4228-.1328.7861.0908.7861.0908"/><path class="cls-3" d="M26.8125,7.4668c-.002.0005.291-.4346.249-.8945-.042-.4639-.4131-.7588-.4111-.7583-.002,0-.2412.4619-.1943.9135.0478.4493.3554.7388.3564.7393"/><path class="cls-3" d="M26.6367,7.6768c0,.0009-.3808.3525-.80469.4414-.42281.0879-.73921-.1104-.74121-.1114.001.001.3389-.3935.7715-.4882.4326-.0962.7773.1586.7744.1582"/><path class="cls-3" d="M27.71001,8.2886c-.002,0,.32709-.4077.32519-.8692-.001-.4663-.3428-.7924-.3418-.791-.002,0-.2803.4385-.2745.8921.0088.4522.29011.7671.29111.7681"/><path class="cls-3" d="M27.5166,8.4814c0,.0025-.4102.3189-.8418.3697-.4277.0498-.7275-.1753-.7285-.1763,0,.0015.374-.3623.8125-.4189.4394-.0581.7598.2265.7578.2255"/><path class="cls-3" d="M28.5303,9.1855c-.002,0,.3623-.3759.4013-.8374.0411-.4643-.2714-.8198-.2705-.8173-.0019-.0005-.3183.4111-.3515.8647-.0332.4512.2207.7891.2207.79"/><path class="cls-3" d="M28.3213,9.3608c-.001.002-.4365.2818-.8701.2945-.4307.0117-.71-.2383-.711-.2393,0,.001.4053-.3286.8457-.3472.4424-.018.7373.293.7354.292"/><path class="cls-3" d="M29.2695,10.1514c-.0019,0,.3936-.3423.4737-.7979.081-.4599-.20019-.8408-.20019-.8393-.001,0-.35161.3823-.42481.8315-.0703.4463.1513.8047.1513.8057"/><path class="cls-3" d="M29.0459,10.3081c0,.0015-.46089.2422-.8926.2163-.4306-.0254-.6875-.3003-.6875-.3013,0,.002.4326-.2919.8731-.27.4433.02.709.356.707.355"/><path class="cls-3" d="M29.9199,11.1792c-.001-.0005.4229-.3062.542-.7534.12211-.4502-.124-.8545-.124-.853-.002-.0005-.3838.3486-.4971.7895-.1103.4395.0791.8154.0791.8169"/><path class="cls-3" d="M29.6826,11.3154c0,.001-.4785.2002-.9072.1367-.4268-.0639-.6582-.3593-.6592-.3613,0,.003.457-.2519.8955-.1914.4395.0596.6719.4165.6709.416"/><path class="cls-3" d="M30.4775,12.2607c-.0019-.0009.4483-.2675.60751-.7031.16009-.4375-.05081-.8623-.04981-.8608-.001-.0005-.41219.3135-.5635.7427-.1494.4277.0049.8193.0058.8212"/><path class="cls-3" d="M30.2285,12.3745c0,.0015-.4951.1568-.916.0567-.4189-.1016-.6221-.4166-.623-.418-.001.0014.47851-.211.9062-.1123.4336.0986.6348.4751.6328.4736"/><path class="cls-3" d="M30.9365,13.3872c-.001-.0015.4698-.2266.667-.6465.2002-.4219.0283-.8628.0283-.8613-.0019-.0005-.4394.2754-.62979.6899-.18561.4121-.06651.8164-.06551.8179"/><path class="cls-3" d="M30.6797,13.4785s-.5078.1133-.918-.0264c-.4082-.1367-.584-.4682-.584-.4702-.0019.0025.4942-.1679.9131-.0317.4219.1367.5899.5303.5889.5283"/><path class="cls-3" d="M31.2939,14.5503c-.00189-.0005.4883-.1841.7217-.5845.23541-.4018.1045-.8574.1045-.8559-.0019-.0005-.4619.2358-.6875.6318-.22259.394-.1387.8071-.1387.8086"/><path class="cls-3" d="M31.0293,14.6187c-.001.0014-.5166.0664-.9111-.108-.3955-.1733-.5411-.5195-.542-.5205-.001.001.50881-.124.9131.0498.4082.1734.541.5801.54.5787"/><path class="cls-3" d="M31.5439,15.7402c0-.0014.5049-.1396.7735-.5171.2695-.3798.1787-.8457.1787-.8432-.002-.0015-.4805.1929-.7412.5664-.25589.373-.211.792-.211.7939"/><path class="cls-3" d="M31.2764,15.7847c-.002.0014-.5205.0205-.89939-.188-.378-.2085-.49031-.5654-.49131-.5669-.0009.0015.5157-.0781.90431.1308.39159.2085.48729.626.48639.6241"/><path class="cls-3" d="M31.6895,16.9482c-.002-.0009.5156-.0957.8144-.4472.3037-.354.2549-.8252.2539-.8238-.001-.0014-.4961.1495-.7881.4996-.2871.3486-.2793.77-.2802.7714"/><path class="cls-3" d="M31.41801,16.9678c-.001.0014-.51861-.0249-.878-.2661-.35741-.2413-.43751-.6079-.43841-.6089-.002.0005.5195-.0313.8877.2109.372.2422.4296.666.42871.6641"/><path class="cls-3" d="M19.2148,31.6187c-.041,0-.0752-.0313-.0791-.0708-.0019-.043.02931-.0811.07131-.085,3.14939-.2656,6.22849-1.7246,8.44629-4.0015,2.2324-2.2641,3.627-5.3706,3.8311-8.5254.0029-.0439.041-.0776.081-.0732.044.0029.0772.0395.0733.082-.2041,3.1914-1.6172,6.335-3.8741,8.6245-2.2441,2.3042-5.3583,3.7798-8.5429,4.0489-.0029.0005-.0049.0005-.0069.0005Z"/><path class="cls-3" d="M31.5791,20.041c-.001-.0019.5234.02.8936-.2568.373-.2769.4316-.7481.4296-.7456-.0009-.002-.5175.0351-.8798.311-.35749.2764-.4434.689-.4434.6914"/><path class="cls-3" d="M31.3086,19.9995c-.001.001-.5-.1401-.7979-.4546-.2939-.3139-.2919-.6894-.2919-.6919-.001.002.5146.085.8193.4038.3096.3194.2715.7447.2705.7427"/><path class="cls-3" d="M31.3467,21.2339c-.002-.0015.5195.0683.9121-.1753.3955-.2441.4971-.707.4961-.7056,0-.0014-.5215-.0102-.9053.2329-.3789.2432-.5019.6465-.5029.648"/><path class="cls-3" d="M31.0811,21.1689c-.002.001-.4854-.1826-.753-.5229-.2676-.3384-.2314-.7129-.2304-.7144-.002.0015.5029.1299.7802.4737.2793.3457.2032.7661.2032.7636"/><path class="cls-3" d="M31.0088,22.4023c-.002-.0014.5107.1133.9228-.0937.418-.208.5586-.6597.5586-.6582,0-.0015-.5195-.0566-.9218.1514-.40139.2085-.5586.5991-.5596.6005"/><path class="cls-3" d="M30.75001,22.3154c-.002,0-.46781-.2265-.70411-.5893-.2363-.3618-.167-.7295-.166-.732-.001.0015.4892.1744.7353.542.2461.3682.13481.7808.13481.7793"/><path class="cls-3" d="M30.5674,23.5361c-.001-.0019.499.1597.9287-.0107.4346-.169.6143-.6074.6133-.606,0-.0014-.5117-.1035-.9317.0689-.4179.1709-.6093.5469-.6103.5478"/><path class="cls-3" d="M30.3164,23.4268c-.001,0-.44239-.2676-.6475-.6495-.2021-.3818-.1005-.7421-.1005-.7441,0,.001.47261.2168.6855.6045.2129.3892.0635.79.0625.7891"/><path class="cls-3" d="M30.0283,24.6265c-.0019-.0015.4815.2026.9248.0722.4473-.1308.666-.5508.6641-.5503.001-.0005-.4981-.1469-.9326-.0141-.4317.1343-.6553.4907-.6563.4922"/><path class="cls-3" d="M29.7881,24.4951c-.002,0-.419-.3056-.5879-.7055-.1689-.3975-.03319-.7481-.03319-.7491,0,.001.45019.2583.62889.6636.1768.4067-.0078.7915-.0078.7915"/><path class="cls-3" d="M29.3926,25.6641c0-.002.4638.2441.917.1538.457-.0904.7109-.4898.7099-.4883,0-.0015-.4843-.1909-.9277-.0962-.4434.0937-.6973.4292-.6992.4307"/><path class="cls-3" d="M29.16701,25.5107c-.002,0-.39061-.3408-.52341-.7529-.1329-.4116.0322-.7485.0332-.75-.001.0005.4257.2979.5664.7168.1396.4209-.07719.7886-.07619.7861"/><path class="cls-3" d="M28.6689,26.6426c0-.0025.4395.2832.8995.2324.4638-.0488.7519-.4233.7509-.4219,0-.0019-.4648-.2343-.917-.1787-.4482.0547-.7314.3667-.7334.3682"/><path class="cls-3" d="M28.45701,26.4697c-.00191,0-.35841-.3745-.45411-.7968-.0957-.4219.0967-.7422.0977-.7437-.001.001.40041.334.5029.7637.1026.4321-.1474.7778-.14649.7768"/><path class="cls-3" d="M27.8623,27.5518c0-.002.4121.3222.875.3125.4668-.0079.7852-.3565.7852-.3565,0,0-.4424-.2729-.89649-.2568-.45311.0146-.76271.2998-.76371.3008"/><path class="cls-3" d="M27.66601,27.3623c-.00191,0-.32421-.4053-.38281-.8335-.0576-.4287.165-.7319.165-.7339-.0009.001.3682.3687.4317.8057.0644.4394-.21489.7637-.21389.7617"/><path class="cls-3" d="M26.9785,28.3872c0-.001.3819.3574.8438.3887.4658.0327.8154-.2862.8134-.2857.001-.0009-.416-.3105-.8711-.3359-.4511-.0244-.7851.2324-.7851.2324"/><path class="cls-3" d="M26.7998,28.1821c-.0019,0-.2871-.4326-.3076-.8652-.0195-.4312.2275-.7148.2275-.7163-.0009,0,.335.4004.3594.8408.0264.4424-.2812.7412-.2793.7407"/><path class="cls-3" d="M26.0244,29.1426c0-.002.35061.3882.80761.4604.459.0738.836-.2134.834-.2129,0-.0014-.38671-.3462-.83691-.4116-.4482-.0644-.8037.1631-.8047.1641"/><path class="cls-3" d="M25.8662,28.9209c-.0019,0-.25-.457-.2314-.8887.0195-.4297.2881-.6914.2881-.6933-.001,0,.2998.4287.28511.8691-.01271.4439-.34281.7139-.34181.7129"/><path class="cls-3" d="M25.0078,29.8101c0-.0015.3135.4174.7627.5297.4512.1143.8516-.1386.8516-.1377,0-.0019-.3555-.3793-.7989-.4843-.4404-.1035-.8144.0913-.8154.0923"/><path class="cls-3" d="M24.8682,29.5752c-.002,0-.209-.4771-.1514-.9058.0576-.4262.3486-.6626.3506-.664-.0029,0,.2588.4526.206.8906-.0527.4399-.4062.6807-.4052.6792"/><path class="cls-3" d="M23.9355,30.3848c0-.001.2754.4428.7129.5952.4414.1543.8623-.0635.8604-.0625,0-.002-.3213-.4077-.752-.5523-.4306-.1425-.8193.0186-.8213.0196"/><path class="cls-3" d="M23.8184,30.1387c-.002,0-.167-.4932-.0713-.9151.0947-.4204.4062-.6294.4072-.6308-.002-.001.2178.4741.127.9052-.0918.4336-.4649.6421-.4629.6407"/><path class="cls-3" d="M22.8174,30.8623c0-.001.2344.4663.6572.6563.4229.1928.8623.0131.8623.0131,0-.0014-.2832-.434-.7021-.6167-.4141-.1796-.8164-.0527-.8174-.0527"/><path class="cls-3" d="M22.7207,30.6064c-.001,0-.1211-.5068.0117-.9184.1309-.4102.461-.5913.4619-.5913-.0019-.0015.1758.4922.0459.9136-.1308.4223-.5205.5976-.5195.5961"/><path class="cls-3" d="M21.6602,31.2378c.0009-.0015.1914.4858.5957.7129.4062.229.8593.0903.8574.0903,0-.0014-.2432-.458-.6426-.6772-.3984-.2163-.8086-.126-.8105-.126"/><path class="cls-3" d="M21.5879,30.9746c-.002,0-.0762-.5151.0928-.9131.166-.3974.5107-.5483.5117-.5488-.002-.001.1308.5059-.0352.9131-.167.4111-.5713.5498-.5693.5488"/><path class="cls-3" d="M20.4727,31.5083c.0019-.002.1494.501.5312.7632.3828.2637.8477.166.8457.166.001-.001-.2021-.4785-.5791-.731-.3769-.2504-.7949-.1977-.7978-.1982"/><path class="cls-3" d="M20.4248,31.2402c-.001-.0005-.0283-.5185.1738-.9023.2032-.3799.5567-.499.5586-.5-.0019-.0015.086.5146-.11619.9072-.20211.3941-.61721.4961-.61621.4951"/><path class="cls-3" d="M19.2695,31.6729c.001-.0015.1026.5136.46.8071.3574.2978.8281.2417.8281.2417,0-.0025-.1582-.4961-.5127-.7808-.3525-.2827-.7744-.2671-.7754-.268"/><path class="cls-3" d="M19.2432,31.4009c-.002-.0015.0166-.5186.2529-.8819.2353-.3613.6016-.4477.6035-.4487-.0019-.001.0381.5205-.1973.8921-.2382.3755-.6611.439-.6591.4385"/><path class="cls-3" d="M16.93701,31.6362h-.00441c-3.1894-.2544-6.3198-1.6733-8.5903-3.9511-2.2852-2.2627-3.7339-5.3912-3.9766-8.5796-.0024-.042.0298-.0811.07231-.084.04149-.0039.08059.0288.08449.0718.2382,3.1518,1.6699,6.2417,3.9287,8.4795,2.2446,2.2524,5.3403,3.6738,8.4922,3.9033.0434.0034.0761.0434.0722.0854-.0029.0415-.0371.0747-.07859.0747Z"/><path class="cls-3" d="M15.8379,31.562c.0019-.0005-.02589.523.248.896.274.376.7437.438.7417.4356.002,0-.0312-.5176-.3032-.8814-.2739-.3594-.6846-.4492-.6865-.4502"/><path class="cls-3" d="M15.8804,31.2925c-.002-.0015.1445-.4986.4629-.793.3164-.293.6919-.2871.6928-.2876-.0009-.0015-.0888.5142-.41009.8174-.32181.3047-.74761.2642-.74561.2632"/><path class="cls-3" d="M14.6465,31.3193c.0014-.0014-.0733.5196.16651.9136.24219.3989.70309.5025.70309.5025,0,0,.0127-.521-.227-.9063-.2393-.3838-.6412-.5093-.6426-.5098"/><path class="cls-3" d="M14.7119,31.0547c-.001-.002.188-.4829.5313-.7495.3413-.2637.71381-.2241.71481-.2241-.001-.0005-.13281.5029-.479.7773-.34861.2759-.76811.1963-.76711.1963"/><path class="cls-3" d="M13.4805,30.9707c.0019-.001-.1182.5103.0854.9253.20311.418.6558.5635.6538.5625.002-.0005.062-.5171-.144-.9224-.2046-.4033-.5943-.5644-.5952-.5654"/><path class="cls-3" d="M13.5703,30.7139c-.001-.0025.2295-.4654.59471-.6993.36279-.2324.731-.1606.73289-.1596-.00189-.0015-.1777.4883-.5478.7314-.37009.2427-.7817.1275-.7798.1275"/><path class="cls-3" d="M12.3501,30.5205c.002-.001-.16309.4985.00291.9287.16649.4346.60309.6201.60109.6182.002,0,.1074-.5098-.06009-.9317-.16841-.4204-.54191-.6147-.54391-.6152"/><path class="cls-3" d="M12.4629,30.2715c0-.0015.27-.4419.6553-.6426.38281-.1997.7417-.0942.7436-.0942-.0019,0-.2202.4707-.61079.6801-.39021.209-.79011.0567-.78811.0567"/><path class="cls-3" d="M11.2646,29.9712c.002-.0015-.206.4809-.08.9253.12741.4482.54541.6704.5449.6694.00051.001.1514-.499.021-.9321-.1294-.4351-.4849-.6611-.4859-.6626"/><path class="cls-3" d="M11.3989,29.7334c0-.0029.30911-.417.7095-.583.3989-.1636.7485-.0274.7505-.0274-.002,0-.2627.4498-.66989.6241-.40681.1728-.792-.0137-.79011-.0137"/><path class="cls-3" d="M10.2324,29.3276c.003-.0014-.249.4615-.1621.9151.0869.4575.4849.7168.4829.7153.002,0,.1963-.4824.104-.9287-.0898-.4424-.4228-.7007-.4248-.7017"/><path class="cls-3" d="M10.3867,29.103c0-.0024.34431-.3877.7588-.5166.4126-.1294.74951.0381.74951.0381,0-.0005-.30171.4248-.72171.561-.4218.1377-.7876-.0834-.7866-.0825"/><path class="cls-3" d="M9.2617,28.5957c.002-.0005-.2886.4375-.2422.8965.0464.4639.418.7563.417.7554.001,0,.2378-.4639.1861-.9146-.0518-.4497-.3609-.7363-.3609-.7373"/><path class="cls-3" d="M9.4351,28.3848c0-.001.3784-.3555.8003-.4483.4218-.0908.7417.1055.74361.1055,0,0-.33691.3965-.76811.4961-.4326.0986-.7768-.1538-.7758-.1533"/><path class="cls-3" d="M8.3589,27.7813s-.3257.4091-.3203.872c.0039.4658.3501.7891.3491.7881,0,0,.2764-.4409.2656-.8945-.0112-.4522-.2944-.7647-.2944-.7656"/><path class="cls-3" d="M8.5493,27.5864c0-.0014.4072-.3208.8374-.376.4282-.0532.73.1705.732.1714,0-.0014-.3721.3653-.8086.4248-.4405.0606-.7622-.2212-.7608-.2202"/><path class="cls-3" d="M7.5298,26.8901c.0019,0-.3599.3794-.395.8409-.0371.4643.2793.8178.2788.8154.00141,0,.31441-.4146.3437-.8677.0279-.4521-.2256-.7876-.2275-.7886"/><path class="cls-3" d="M7.7383,26.7139c.001-.0015.4346-.2852.86671-.3008.43209-.0156.71339.2334.71429.2334-.0009-.001-.40229.3315-.8427.3525-.4444.0225-.7393-.2861-.7383-.2851"/><path class="cls-3" d="M6.7832,25.9297c.002,0-.3911.3457-.4673.8022-.0776.4595.2066.8394.2056.8374.0019,0,.3496-.3847.4189-.8344.0679-.4468-.1562-.8033-.1572-.8052"/><path class="cls-3" d="M7.0063,25.7715s.459-.2451.8912-.2232c.4301.023.6889.2959.6889.2964,0-.0014-.4292.2954-.8706.2779-.4429-.0181-.7114-.3511-.7095-.3511"/><path class="cls-3" d="M6.1255,24.9063c0,.0009-.4199.311-.5376.7597-.1172.4502.1323.853.1323.8506.002,0,.3814-.3516.4902-.7939.1075-.4395-.0849-.8135-.0849-.8164"/><path class="cls-3" d="M6.3604,24.7695c.0009-.0009.4794-.2041.9067-.1435.4277.06.6606.3545.6626.3554,0,0-.4561.2559-.8936.1993-.4389-.0567-.6767-.4112-.6757-.4112"/><path class="cls-3" d="M5.5596,23.8311c.00141,0-.4463.2705-.60159.706-.15821.4395.05569.8623.05569.8613.0014,0,.4106-.3169.5586-.748.146-.4282-.0127-.8189-.0127-.8193"/><path class="cls-3" d="M5.8057,23.7148c.0014-.0014.4956-.1621.9174-.0634.4185.0976.6255.4111.6265.4126.001-.0015-.47559.2148-.9058.1191-.434-.0952-.6381-.4697-.6381-.4683"/><path class="cls-3" d="M5.0913,22.707c.002.0005-.46729.2305-.6616.6514-.1963.4229-.0215.8638-.022.8623.0025,0,.4375-.2798.6245-.6953.1831-.4141.0611-.8164.0591-.8184"/><path class="cls-3" d="M5.3486,22.6138c0-.002.5069-.1167.9175.0185.4092.1358.5874.4654.5884.4673.001-.0029-.4941.1704-.9141.0381-.4228-.1328-.5927-.5259-.5918-.5239"/><path class="cls-3" d="M4.7266,21.5469s-.4873.188-.7178.5893c-.2339.4038-.0982.8589-.0982.8579.002,0,.461-.2402.6827-.6372.2192-.3965.1333-.8081.1333-.81"/><path class="cls-3" d="M4.9902,21.4766c0-.001.5157-.0708.9121.1005.3956.1714.5435.5152.5445.5167.0005-.0015-.5073.1279-.9136-.043-.4087-.1699-.5439-.5752-.543-.5742"/><path class="cls-3" d="M4.4658,20.3594c.001.0005-.5014.143-.768.5224-.2681.3828-.1739.8467-.1739.8443.002.0014.48-.1968.7364-.5733.2534-.3735.2055-.7924.2055-.7934"/><path class="cls-3" d="M4.7339,20.312c.0019-.0005.52-.0249.9014.1812.3784.206.4941.562.4951.5634.0005-.0014-.5157.0821-.9048-.1235-.39359-.206-.4917-.6216-.4917-.6216"/><path class="cls-3" d="M4.3115,19.1514c.00251.0019-.5136.1006-.81149.4536-.29981.3574-.249.8271-.248.8257.00189.0009.497-.1529.78459-.5054.2857-.3496.2749-.7715.2749-.7739"/><path class="cls-3" d="M4.5835,19.1294c.00151-.001.519.022.8794.2602.3603.2393.4443.6045.4443.6055.001-.001-.52.0352-.8901-.2041-.3735-.2392-.4346-.6626-.4336-.6616"/><path class="cls-1" d="M25.2285,17.1504c-.0556.0254-.0527.0918-.1074.1338-.1582.1211-.4707.0503-.4854-.1519-.1503.0606-.2988-.0078-.2783-.1972-.0381-.0538-.122-.063-.1601-.1167-.07129-.1997-.0537-.3697.081-.4932.0186.0122.0606-.0112.0791-.0264-.0732-.143.0518-.3427.253-.2788.08-.0542.09961-.1616.205-.187.1729-.0434.3194.0537.4219.1426.0059.0293-.0049.0415-.0088.0625.18651-.0508.334.0967.2598.2519.0469.0704.1426.0801.17971.1788.00489.0136-.01271.0336-.00981.0532.0059.0366.0283.0561.0283.0722-.0039.1206-.0771.2271-.1894.2779-.0069.1079,0,.248-.1162.2871-.045.0156-.0948-.001-.1524-.0088M25.3369,16.3789c-.0283.0044-.0713.0293-.0898.0625.0351.0161.0996.0015.0976.0542-.0088.041-.0586-.0166-.0615.0357.00981.0092.0811.0053.0791.0537-.0078.0127-.0078.0341-.0254.0361-.04489.0029-.0723-.02-.1084,0,.02051.0552.082.0127.1084.063-.0224.02-.0508.0347-.083.0454.3066.2573.415-.3984.083-.3506M25.3809,16.1997c-.0225-.0425-.0948-.0762-.1524-.0444-.0322.0176-.1084.1836-.1172.2148.1045.0029.3242-.0654.2696-.1704M25.1211,16.7739c.0303.1236.0576.3277.2334.2505.0664-.1626-.10349-.2256-.2334-.2505M25.1025,16.2441c.02451-.042.0323-.0986.045-.1513-.0108-.0313-.0479-.0362-.045-.0811-.10449-.0605-.29-.0771-.3671.0176-.0293.0693-.0215.1982.05461.2148.02639.001.00689-.0449.03519-.0444.0469.02.0742.0005.1084-.0181.0068.0162.0322.0152.0352.0362-.0127.0141-.0381.0332-.0176.0542.042-.021.0254-.1167.0801-.0991.0136.0185.0058.059.0175.0815.0313.0146.0225-.0073.0537-.0103M24.7441,17.1411c.1045.0903.3623.0811.3848-.0718.0088-.0464-.0156-.1123-.04389-.1528-.05671-.0019-.01471.0933-.06251.0991-.0118-.0283-.0362-.0478-.0176-.0805-.0694-.0113-.0244.0898-.0713.0986-.0449-.0015-.0977.0063-.1182-.0181-.0039-.0356.0088-.0859-.0078-.1074-.0791.0298-.0918.1455-.0635.2329M24.7617,16.6572c.0147.0601.0908.0752.1426.1167.0801-.0146.1426-.0444.18071-.0986.06829-.3057-.38581-.2622-.32331-.0181M24.4834,16.9434c-.0117.0825.0791.1298.1523.0903.0596-.0308.0918-.1787.0899-.2334-.0567-.0044-.2334.0923-.2422.1431M24.6357,16.1455c-.039-.0229-.1054-.0381-.1523-.0083-.0225.0376-.0371.0825-.0352.1436.0821.0473.1719.1284.2774.1245-.0088-.106-.0664-.166-.0899-.2598M24.3193,16.4512c-.123.2148.0909.5283.293.2959-.0205-.0342-.1025-.0069-.1172-.045-.0107-.0371.0176-.0351.0176-.0629-.0254-.002-.0283-.0259-.0371-.045.0312-.0239.0303-.0537.0127-.0903.0283-.0391.09471-.0029.1299-.0268v-.0259c-.1084-.065-.2139-.0733-.2989,0"/><path class="cls-1" d="M11.3867,17.1504c-.0542.0254-.05269.0918-.1059.1338-.1592.1211-.4732.0503-.4849-.1519-.15189.0606-.3008-.0078-.2793-.1972-.0391-.0538-.12259-.063-.1602-.1167-.0722-.1997-.0556-.3697.08061-.4932.01809.0122.061-.0112.07959-.0264-.0723-.143.0527-.3427.2515-.2788.0825-.0542.1015-.1616.207-.187.1733-.0434.3203.0537.4204.1426.0054.0293-.0059.0415-.0088.0625.188-.0508.334.0967.26031.2519.04779.0704.14259.0801.17869.1788.00631.0136-.0112.0336-.0083.0532.0054.0366.0273.0561.0264.0722-.0025.1206-.07479.2271-.1875.2779-.0074.1079-.001.248-.1167.2871-.0455.0156-.0943-.001-.1529-.0088M11.4941,16.3789c-.0268.0044-.0712.0293-.0888.0625.0351.0161.101.0015.0991.0542-.0103.041-.0601-.0166-.064.0357.0122.0092.0825.0053.08061.0537-.00931.0127-.00831.0341-.02691.0361-.0434.0029-.0712-.02-.1074,0,.0205.0552.0825.0127.1074.063-.021.02-.0478.0347-.0805.0454.3056.2573.4135-.3984.0805-.3506M11.5396,16.1997c-.023-.0425-.0953-.0762-.1529-.0444-.0322.0176-.1079.1836-.1162.2148.10351.0029.3228-.0654.2691-.1704M11.2808,16.7739c.0293.1236.0551.3277.2309.2505.0679-.1626-.1035-.2256-.2309-.2505M11.2622,16.2441c.022-.042.0313-.0986.0454-.1513-.0122-.0313-.0493-.0362-.0454-.0811-.1055-.0605-.2895-.0771-.36819.0176-.02971.0693-.02241.1982.05279.2148.0283.001.0097-.0449.0366-.0444.0474.02.0762.0005.1074-.0181.0083.0162.03321.0152.03621.0362-.01131.0141-.03911.0332-.01861.0542.0444-.021.0259-.1167.0815-.0991.0127.0185.0064.059.0186.0815.0312.0146.021-.0073.0537-.0103M10.9033,17.1411c.1045.0903.3613.0811.3858-.0718.0063-.0464-.0162-.1123-.0454-.1528-.05569-.0019-.01569.0933-.063.0991-.0113-.0283-.0362-.0478-.0176-.0805-.0684-.0113-.023.0898-.0723.0986-.0434-.0015-.0952.0063-.1157-.0181-.0034-.0356.0073-.0859-.0093-.1074-.0776.0298-.0903.1455-.0625.2329M10.9209,16.6572c.0156.0601.0894.0752.14311.1167.07859-.0146.14059-.0444.17969-.0986.06831-.3057-.3848-.2622-.3228-.0181M10.6421,16.9434c-.0117.0825.0786.1298.1538.0903.05711-.0308.0923-.1787.0898-.2334-.0595-.0044-.2353.0923-.2436.1431M10.7959,16.1455c-.041-.0229-.1074-.0381-.1538-.0083-.021.0376-.03709.0825-.0352.1436.0826.0473.1734.1284.2788.1245-.0102-.106-.0678-.166-.0898-.2598M10.4722,16.4512c-.1231.2148.0952.5283.2959.2959-.0205-.0342-.10109-.0069-.1167-.045-.0093-.0371.0195-.0351.0185-.0629-.02389-.002-.0278-.0259-.0361-.045.0317-.0239.0268-.0537.0083-.0903.0298-.0391.0806-.0029.126-.0268v-.0259c-.0869-.065-.211-.0733-.2959,0"/><path class="cls-1" d="M2.2109,17.6597c.2456.1328.43611.3247.7422.2602-.1074-.0874-.2749-.1513-.4262-.2412-.1485-.167-.2852-.3447-.3516-.5937-.1929-.2315-.6128-.127-.5015.1665.0923.2465.2979.2788.5371.4082M2.9346,17.6973c.1489.1181.4092.2568.5581.2597.02931-.1216-.1074-.1147-.1685-.167-.2036-.1801-.2534-.5468-.4453-.7426-.1533-.0205-.269.0258-.29689.1123-.09031.2734.23149.4409.35259.5376M2.2109,18.3389c-.2392.1308-.4448.1621-.5371.4082-.1113.2944.3086.3999.5015.1679.0664-.249.2031-.4267.3516-.5942.1513-.0898.3188-.1538.4262-.2407-.30609-.0655-.4966.1269-.7422.2588M2.9346,18.3022c-.1211.0972-.4429.2647-.35259.5381.02789.085.14359.1324.29689.1118.1919-.1962.2417-.5629.4453-.7426.0611-.0532.19781-.0464.1685-.1675-.1489.0029-.4092.1426-.5581.2602M2.2622,17.9849c.0703-.0992-.1479-.1236-.2397-.1626-.3081-.125-.458-.2681-.5679-.4678-.0317-.0571-.0879-.1665-.1641-.1738-.2182-.0616-.3291.0185-.3701.1035-.12939.2744.3442.4326.522.5107.1797.0786.47561.1748.6894.1919-.21379.0254-.5097.1402-.6894.2193-.1778.0771-.65139.2363-.522.5102.041.0845.1519.1646.3701.104.0762-.0073.1324-.1167.1641-.1748.1099-.1987.2598-.373.5679-.4985.0918-.0371.31-.062.2397-.1621M.6909,17.7827c-.1758,0-.271.1499-.271.2251,0,.124.0952.2251.271.2251.313,0,.8623-.2251.8623-.2251,0,0-.5493-.2251-.8623-.2251"/><path class="cls-1" d="M33.7891,18.3403c-.2442-.1333-.4346-.3252-.7422-.2602.1074.0869.2744.1509.4267.2412.1475.167.2852.3447.3526.5937.1914.232.6113.127.5-.167-.0928-.2465-.2979-.2783-.5371-.4077M33.0654,18.3032c-.14939-.1186-.4091-.2578-.5566-.2602-.0322.1211.1074.1137.167.167.2041.1801.2539.5468.4453.7426.1533.0201.2685-.0268.29691-.1123.09179-.2734-.23151-.4409-.35261-.5371M33.7891,17.6611c.2392-.1308.4443-.1621.5371-.4082.1113-.2944-.3086-.3994-.5-.1679-.0674.249-.2051.4272-.3526.5942-.1523.0894-.3193.1533-.4267.2407.3076.0645.498-.1274.7422-.2588M33.0654,17.6973c.1211-.0967.4444-.2637.35261-.5376-.02841-.0855-.14361-.1328-.29691-.1114-.1914.1958-.2412.5621-.4453.7417-.0596.0533-.1992.0459-.167.1675.1475-.0029.40721-.1421.5566-.2602M33.7402,18.0146c-.07219.0997.1446.1241.2383.1626.3076.125.457.2691.5674.4683.0312.0576.0889.1665.16211.1738.22069.0616.332-.0195.37109-.1035.12991-.2744-.3437-.4331-.5215-.5112-.1797-.0786-.4765-.1743-.6885-.1914.212-.0259.5088-.1402.6885-.2193.1778-.0771.65141-.2363.5215-.5102-.03909-.085-.1504-.165-.37109-.104-.07321.0073-.13091.1167-.16211.1748-.1104.1982-.2598.3721-.5674.4985-.0937.0371-.31049.0616-.2383.1616M35.3086,18.2168c.1758,0,.2715-.1499.2715-.2246,0-.124-.0957-.2251-.2715-.2251-.3135,0-.8633.2251-.8633.2251,0,0,.5498.2246.8633.2246"/><path class="cls-3" d="M18.2515.4106c0,.2881-.25149.6529-.25149.6529,0,0-.25241-.3648-.25241-.6529,0-.2871.1128-.4106.25241-.4106.13959,0,.25149.1235.25149.4106"/><path class="cls-3" d="M17.5737.7388c.1441.145.2007.456.2007.456,0,0-.312-.0561-.4551-.2016-.1455-.1446-.1508-.2637-.0805-.334s.1904-.0654.3349.0796"/><path class="cls-3" d="M18.4268.7388c-.1446.145-.2022.456-.2022.456,0,0,.312-.0561.4566-.2016.1459-.1446.1499-.2637.0795-.334-.0703-.0703-.1889-.0654-.3339.0796"/><path class="cls-1" d="M19.0703,2.5605c.0098-.2597.124-.2705.1836-.3437.16411-.2041.0557-.4204-.2168-.582-.2505-.1494-.7505.0776-.7505.0776-.07959-.2983-.28659-.292-.28659-.292,0,0-.20611-.0063-.28561.292,0,0-.5005-.227-.7505-.0776-.273.1616-.3824.3779-.2173.582.06.0732.1758.084.1831.3437.00931.2579-.2276.1705-.2276.1705,0,0-.1186.1552.294.4199.4145.2641.605.1679.7534.0786,0,0,.0996.1597.25051.2139.15189-.0542.25149-.2139.25149-.2139.1484.0893.3388.1855.7514-.0786.41211-.2647.295-.4199.295-.4199,0,0-.2344.0874-.2276-.1705M18.00001,1.6543s.16109-.0132.12789.165c-.0317.1787-.0815.2598-.0908.2774-.0093.0185-.03709.0176-.03709.0176,0,0-.02691.0009-.03711-.0176-.0083-.0176-.0601-.0987-.0913-.2774-.0318-.1782.12841-.165.12841-.165M16.9907,2.9756c-.0464-.0112-.1054-.0479-.1362-.0796.0381-.083.1343-.0991.1694-.1948.0445-.1241.0259-.2408-.0278-.3828.0278-.0352.0464-.0269.0918-.0088.1963.0791.2959.3252.207.5005-.0888.1743-.2173.186-.3042.1655M18.00001,3.1738c-.06541,0-.11771-.0527-.11771-.1181,0-.0645.0523-.1167.11771-.1167.06489,0,.11869.0522.11869.1167,0,.0654-.0538.1181-.11869.1181M18.4531,3.0742c-.1606-.041-.3589-.1694-.3872-.5224-.0151-.0039-.0307-.0064-.0493-.0064-.0312,0-.0581.0068-.082.0161-.0318.3438-.2281.4717-.3867.5127-.0918.0244-.1724-.0039-.2554-.0361.1089-.1382.2422-.2017.2422-.5625,0-.3775-.1665-.5513-.5108-.6631.0205-.0962.05911-.0986.1553-.1079.3813-.0327.6987.2778.7505.6518.0288.0123.0581.0215.0869.0215.0186,0,.0361-.0044.0518-.0102.0483-.3784.3681-.6963.7534-.6631.09621.0093.1357.0117.1543.1079-.3423.1118-.5078.2856-.5078.6631,0,.3608.1313.4243.2402.5625-.083.0322-.1636.0605-.2554.0361M19.0107,2.9756c-.0874.0205-.2158.0088-.3046-.1655-.0879-.1753.0107-.4214.207-.5005.0454-.0181.062-.0264.0918.0088-.0537.142-.0723.2587-.02689.3828.03369.0957.13039.1118.16949.1948-.0313.0317-.0909.0684-.1368.0796"/><path class="cls-3" d="M18.2515,35.5894c0-.2876-.25149-.6539-.25149-.6539,0,0-.25241.3663-.25241.6539,0,.2871.1128.4106.25241.4106.13959,0,.25149-.1235.25149-.4106"/><path class="cls-3" d="M17.5737,35.2607c.1441-.1445.2007-.4555.2007-.4555,0,0-.312.0571-.4551.2016-.1455.1451-.1508.2637-.0805.334s.1904.0664.3349-.0801"/><path class="cls-3" d="M18.4268,35.2607c-.1446-.1445-.2022-.4555-.2022-.4555,0,0,.312.0571.4566.2016.1459.1451.1499.2637.0795.334-.0703.0703-.1889.0664-.3339-.0801"/><path class="cls-1" d="M19.2979,33.2681s.11711-.1548-.295-.4185c-.4126-.2646-.603-.1689-.7514-.0791,0,0-.0996-.1601-.25149-.2139-.15091.0538-.25051.2139-.25051.2139-.1484-.0898-.3389-.1855-.7534.0791-.4126.2637-.294.4185-.294.4185,0,0,.23691-.0865.2276.1714-.0073.2597-.1231.2709-.1831.3437-.1651.2041-.0557.4199.2173.582.25.1494.7505-.0786.7505-.0786.0795.2984.28561.293.28561.293,0,0,.207.0054.28659-.293,0,0,.5.228.7505.0786.2725-.1621.38091-.3779.2168-.582-.0596-.0728-.1738-.084-.1836-.3437-.0078-.2579.2276-.1714.2276-.1714M17.8716,34.1807c.0312-.1787.083-.2593.0913-.2774.0083-.0185.03711-.0176.03711-.0176,0,0,.02779-.0009.03709.0176.0093.0181.0591.0987.0908.2774.0332.1782-.12789.165-.12789.165,0,0-.16021.0132-.12841-.165M17.2949,33.1904c.0889.1748-.0107.4204-.207.4991-.0454.0195-.064.0263-.0918-.0079.0537-.142.0723-.2583.0278-.3828-.0351-.0957-.1313-.1118-.1694-.1943.0308-.0322.0898-.0689.1362-.0796.0869-.0205.2154-.0088.3042.1655M18.1187,32.9443c0,.064-.0538.1167-.11869.1167-.06541,0-.11771-.0527-.11771-.1167,0-.0654.0523-.1172.11771-.1172.06489,0,.11869.0518.11869.1172M18.7085,32.9619c-.1089.1377-.2402.2012-.2402.563,0,.3774.1655.5508.5078.6631-.0186.0952-.05809.0981-.1543.1064-.3853.0347-.7051-.2832-.7534-.6626-.0157-.0058-.0332-.0097-.0518-.0097-.0288,0-.0581.0097-.0869.0219-.0518.3741-.3692.6841-.7505.6504-.09619-.0083-.1348-.0112-.1553-.1064.3443-.1123.5108-.2857.5108-.6631,0-.3618-.1333-.4253-.2422-.563.083-.0322.1636-.06.2554-.0361.1586.0415.3549.1684.3867.5127.0239.0093.0508.0161.082.0161.0186,0,.0342-.0025.0493-.0059.0283-.353.2266-.4814.3872-.5229.0918-.0239.1724.0039.2554.0361M19.1475,33.1045c-.0391.0825-.1358.0986-.16949.1943-.04541.1245-.02681.2408.02689.3828-.0298.0342-.0464.0274-.0918.0079-.1963-.0787-.2949-.3243-.207-.4991.0888-.1743.2172-.186.3046-.1655.0459.0107.1055.0474.1368.0796"/><path class="cls-3" d="M11.6387,19.3516c.124-.0459.248-.0909.3711-.1368.0117.0523.0258.1055.0385.1592.0152.0537.0298.106.0464.1573.0157.0498.0352.101.0567.1523.021.0518.0415.103.0561.1533.0279.084.0474.1651.0581.2442.0103.0781.0088.1518-.0044.2182-.0146.0674-.0434.126-.0869.1773-.0444.0503-.1074.0893-.1904.1152-.1445.0469-.272.0376-.3843-.0273-.1118-.0645-.207-.1651-.28759-.3008l-.00441.0019c.0469.1758.0488.3272.00441.4527-.04341.1255-.14991.2148-.31831.268-.1099.0352-.209.042-.2979.0215-.0889-.0215-.1675-.06-.23579-.1186-.06941-.0572-.128-.1265-.17391-.208-.0473-.0816-.0844-.1646-.1113-.251-.0156-.0469-.0293-.0943-.0435-.1431-.0126-.0488-.0268-.0962-.0424-.1435-.0147-.0469-.0293-.0938-.0445-.1421-.0166-.0484-.0332-.0948-.0517-.1402.1279-.0351.2524-.0693.3794-.1045.12591-.0351.2534-.0732.3818-.1142l.5044-.1616c.1294-.0415.2563-.0845.3804-.1294M10.4897,19.9995c-.0961.0347-.1933.0708-.2924.1065.0083.038.0185.0835.0312.1352.0142.0518.0288.104.0454.1567.0205.0625.0498.1202.0908.1709.0396.0508.0889.0904.1441.1202.0557.0298.1186.0473.187.0532.0703.0049.1445-.0039.2231-.0298.084-.0264.149-.063.1924-.1113.0454-.0474.0733-.1045.084-.1709.0132-.0659.0112-.1406-.0019-.2241-.0137-.0831-.0357-.1734-.06739-.2715l-.04151-.1319-.2998.0962c-.1001.0313-.1978.065-.295.1006M11.3286,20.1235c.0352.0635.0777.1162.1279.1582.0479.0435.10551.0718.17.0865.0639.0151.1372.0097.2192-.0166.0806-.0264.1397-.0616.1787-.1055.0381-.0444.063-.0942.0742-.1475.0137-.0537.0147-.1098.00541-.1694-.00931-.0601-.02291-.1182-.04151-.1748-.0161-.0513-.0327-.0933-.0454-.1274-.01509-.0347-.0278-.0645-.041-.0909-.0952.0264-.1905.0513-.2818.0772-.0947.0259-.188.0532-.2812.083l-.2212.0718.0518.1582c.0209.0688.0498.1347.0849.1972"/><path class="cls-3" d="M12.1538,21.7666c-.0063-.0308-.0166-.0596-.0332-.0869-.0229-.043-.0557-.0747-.0942-.0977-.0401-.0224-.0816-.0356-.128-.04-.0459-.0044-.0962.0005-.1479.0137-.0537.0146-.10549.0351-.1572.0654l-.2935.1694c-.1191.0679-.2109.1206-.2734.1587-.062.0366-.1123.0698-.1485.0982-.0175-.0376-.0361-.0757-.0561-.1119-.0225-.038-.0454-.0737-.0703-.1084.0644-.0288.1489-.0737.2534-.1323.1035-.0595.2329-.1313.3838-.2192l.0854-.0498c.0694-.0391.14991-.0864.2393-.1392.0908-.0532.1943-.1167.3081-.1885.0083.021.0151.042.0234.0611.0073.019.0166.0381.0274.0591.0092.0151.0205.0307.03371.0478.01269.0161.02779.0337.04149.0513-.0684.0288-.1211.0542-.1592.0747-.0381.021-.0742.0405-.1074.0605v.0064c.2529-.0049.4174.0576.4912.187.0092.0161.0161.0308.0215.0435.0043.0126.0083.0297.0122.0512-.0259.0039-.062.0171-.1075.0406-.0444.0229-.0844.0449-.1206.0649l-.0239-.0098c.0059-.0161.0059-.0381,0-.0698"/><path class="cls-3" d="M12.3721,22.1816c.0781-.0634.14991-.1274.21291-.1894.02779.0517.05169.0908.07319.1191.021.0274.0537.0611.0972.1001-.0762.0469-.1563.0996-.2378.1592-.0825.0596-.1612.1167-.2344.1743l-.2534.1963c-.07279.0557-.1489.1157-.2276.1807-.0795.0654-.1469.126-.205.1845-.0269-.039-.0537-.0781-.0806-.1132-.0288-.0367-.05859-.0713-.0898-.1065.07121-.0415.1479-.0928.2304-.1533.0821-.0596.1602-.1172.2339-.1743l.2525-.1948c.0742-.0572.1489-.1172.2285-.1827M13.1152,21.6187c.0435.0058.0786.0249.1045.0595.0259.0342.0362.0718.03031.1157-.00441.043-.02491.0782-.05811.1045-.0352.0264-.0737.0371-.1177.0318-.0434-.0054-.0766-.0259-.1035-.0596-.0269-.0342-.0371-.0732-.0312-.1162.0063-.0435.0249-.0776.06-.1045.0332-.0264.0723-.0366.1157-.0312"/><path class="cls-3" d="M13.0566,24.1724c-.0341.0131-.0737.0249-.1201.0346-.0464.0108-.0962.0137-.1499.0103-.0517-.0044-.1074-.0171-.16359-.0401-.05761-.0229-.11371-.0605-.16941-.1108-.0591-.0522-.1074-.1123-.145-.1826-.0391-.0703-.05959-.1475-.062-.2315-.0039-.0839.0127-.1733.0498-.269s.0991-.1929.189-.292c.0878-.0981.1772-.1709.2719-.2168.0923-.0454.1851-.0723.2735-.0796.0908-.0053.1757.0059.2553.0347.0816.0283.14991.0698.21.1235.1694.1509.2197.3335.1494.5459l.0034.0049.2017-.2256c.0517-.0595.1045-.1172.1562-.1772.0518-.0601.1011-.1177.149-.1714.0463-.0542.0908-.105.1323-.1533.043-.0489.0786-.0918.1103-.1309.0157.0205.0303.0391.0464.0566.0147.0176.0293.0328.0479.0489.0146.0146.0332.0283.0517.04.01861.0127.0391.0259.0611.0401-.0489.0454-.1162.1132-.2017.2026-.0869.0903-.1802.1899-.2812.2998-.10359.1099-.2071.2231-.3145.3394-.1074.1167-.2046.2241-.2925.3232-.0942.1055-.1782.2002-.2514.2861-.0743.086-.1499.1739-.2276.2642-.0278-.0298-.05759-.0581-.0859-.0845-.0269-.0249-.0586-.0498-.0918-.0737l.2026-.2124-.0049-.0034ZM12.50001,23.5391c-.03421.0771-.05181.146-.05471.2085-.0019.0634.0103.1191.0361.167.0259.0473.0572.0883.0943.1206.0591.0537.124.0849.19431.0932.06839.0083.13869.0015.211-.022.07029-.0224.14059-.059.20889-.1088.0679-.0508.1299-.1045.18411-.1665.13089-.1475.20269-.2852.21579-.4122.0118-.1284-.0371-.2421-.1479-.3408-.0557-.0488-.1128-.0801-.1758-.0903-.064-.0112-.1299-.0059-.1963.0151-.0683.0215-.1352.0562-.2016.106-.0674.0478-.1314.1074-.1934.1772-.0825.0909-.1406.1758-.17479.253"/><path class="cls-3" d="M14.5898,23.811c.0806.0161.1573.0425.2295.0826.065.0346.1192.0766.1636.1245.0444.0483.0762.101.0952.1567.0196.0562.02691.1148.0225.1758-.0054.0615-.023.123-.0567.1826-.0551.103-.1127.2041-.17089.3052-.059.1001-.11961.207-.18061.3208-.0117.0215-.0239.0449-.0361.0703-.0127.0254-.0191.0488-.023.0713-.0034.0229,0,.0449.0054.0649.0078.0191.0244.0366.0522.0513.0083.0059.0176.0098.0274.0142.0112.0043.0224.0063.0346.0063l-.0327.0596c-.0249-.0025-.0537-.0078-.0869-.0191-.0312-.0112-.0664-.0259-.1016-.0449-.0595-.0322-.0962-.0713-.1113-.1172-.0146-.0473-.0127-.0957.0068-.146-.1001.0308-.1899.0435-.2695.041-.0796-.0044-.1655-.0302-.2578-.0796-.0435-.0249-.0854-.0551-.1216-.0903-.0366-.0366-.0635-.0781-.081-.125-.0176-.0473-.0259-.0967-.0254-.1479.001-.0518.01611-.104.0439-.1568.0591-.1093.1387-.1743.2383-.1972.1001-.0235.2148-.0127.3442.0322.1055.0356.19.0625.252.0801.061.0175.1079.0278.1406.0298.0332.0014.05711-.0044.0718-.0196.0151-.0137.0298-.0346.043-.063.0258-.0444.0424-.0903.0551-.1382.0113-.0468.01421-.0922.0064-.1352-.0064-.0439-.023-.0859-.0518-.125-.0273-.04-.0683-.0747-.123-.1035-.0718-.0391-.148-.0596-.2285-.0606-.0801-.0005-.1504.0186-.2124.0606l-.0298-.0166.0766-.1406c.1138-.0176.211-.0186.2915-.0035M14.5854,24.6289c-.04339-.0146-.0888-.0288-.1352-.0435-.0464-.0151-.0928-.0263-.1397-.0346-.0473-.0098-.0927-.0127-.1362-.0069-.0434.004-.081.0176-.1181.0401-.03719.0224-.0684.0586-.09619.1094-.04641.0849-.05671.1626-.03181.2319.0249.0698.0679.1201.126.1528.0684.0366.1426.0518.2202.0445.0757-.0079.1445-.0284.2017-.0621l.2314-.4018c-.0371-.0054-.0776-.0161-.1221-.0298"/><path class="cls-3" d="M15.8379,24.1611c.0239-.0771.0488-.1552.0723-.2324.0239-.0766.0444-.1499.0644-.2202.0205-.0703.0361-.1309.0483-.1802.0518.0283.0943.0479.1275.0576.0337.0118.0791.0215.1372.0303-.0205.0469-.0435.105-.0684.1724-.0268.0693-.0537.1401-.0805.2168-.0269.0747-.05469.1518-.0825.2295-.0259.0771-.0499.1494-.0723.2153l-.1758.5303c-.022.0654-.0459.1382-.0703.2168-.0259.0781-.04979.1552-.07279.2324-.02341.0766-.04541.1494-.06391.2187-.0205.0694-.0352.1265-.0474.1734-.0434-.0191-.0869-.0366-.1284-.0503-.0435-.0142-.0889-.0259-.13429-.0376.01859-.0435.042-.0991.06589-.1665.0259-.0664.0537-.1382.0806-.2139.0269-.0752.0537-.1514.0801-.2295.0263-.0781.0522-.1499.0742-.2168l.1758-.5288c.02241-.0659.04441-.1387.0703-.2173"/><path class="cls-3" d="M18.6216,25.7598c-.03659.0981-.0889.1816-.1514.2514-.0649.0703-.1401.1236-.2261.1602-.0849.0361-.1777.0537-.2753.0532-.0992-.0019-.188-.0244-.2667-.0683-.0786-.0435-.1367-.0948-.1777-.1558-.0747.0591-.145.1172-.209.1758l-.0556-.0005c.0048-.0498.0083-.1094.0141-.1797.0034-.0693.0074-.1436.0108-.2222.0039-.0791.0058-.1601.00831-.2422.00189-.0825.00489-.1577.00579-.228l.0083-.5581c.002-.0698.002-.1455.003-.228,0-.0821,0-.1631-.001-.2442,0-.08-.002-.1567-.0039-.2285-.002-.0732-.0034-.1357-.0073-.187.05711.0112.1025.0176.1376.0181.02351,0,.04551-.0015.0713-.0044.024-.0025.0508-.0054.0796-.0093-.0063.041-.0127.1065-.0185.1958-.0054.0894-.0103.188-.0127.2988-.0039.1099-.0083.2261-.01319.3423-.00341.1162-.00731.21-.01121.3194h.0078c.0703-.1094.1499-.1934.2339-.2432.0849-.0508.184-.0762.2939-.0737.1065.0004.1992.0219.2759.0629.0776.042.1426.0953.1924.1617.05031.0669.0869.1445.11131.2319.02489.0874.03559.1787.03519.2759-.002.1196-.0225.2275-.0596.3257M18.3774,25.1685c-.021-.0728-.0517-.1353-.0888-.1851s-.08059-.0879-.1304-.1147c-.0498-.0259-.1016-.0401-.1553-.0411-.063-.0014-.125.0098-.1831.0328-.0595.0224-.1113.0605-.1557.1142-.0425.0537-.0796.1245-.1065.2114-.0268.0865-.0415.1939-.0434.3218-.0074.4126.1391.6221.4404.6265.063.001.1211-.0152.1767-.0479.0538-.0327.1011-.081.1426-.1445.0396-.0625.0723-.1392.0972-.2271.02291-.0878.0371-.1865.0381-.2949.0014-.0942-.0088-.1777-.0318-.2514"/><path class="cls-3" d="M19.0146,25.0713c.0196-.106.0586-.1968.1143-.2725.0557-.0761.12311-.1386.20311-.186.08109-.0483.16409-.0825.24909-.104.0878-.0205.1787-.0283.2714-.022.0909.0059.1797.0298.2657.0718.083.042.1582.1055.2246.1894.0654.085.11421.1949.1474.3311.0323.1348.0391.2559.0196.3613-.0205.1055-.0577.1958-.1123.2715-.0557.0757-.1231.1358-.2041.1812-.0801.0439-.1631.0776-.251.0991-.0879.021-.1758.0293-.2676.0278-.0937-.0034-.1826-.0263-.2666-.0683-.083-.042-.15919-.1055-.2246-.1885-.0674-.0855-.1162-.1953-.1494-.3316-.03219-.1347-.0396-.2553-.0196-.3603M19.3799,25.6055c.03511.0742.0762.1377.126.1894.0507.0513.1113.0889.1796.1104.0694.0215.14751.0215.2354,0,.0879-.0215.1572-.0576.208-.1079.0518-.0503.0879-.1109.1094-.1807.0205-.0698.0293-.144.0244-.2261-.0039-.082-.0156-.164-.0361-.249-.0205-.083-.0469-.1621-.0811-.2368-.0342-.0737-.0771-.1367-.1269-.1895-.0508-.0512-.1114-.0888-.1797-.1098-.0684-.0215-.1455-.0215-.2334,0-.0889.021-.1582.0571-.208.1074-.0528.0503-.0879.1108-.1094.1802-.0215.0698-.0313.145-.0264.227.0039.082.0156.1636.0362.2481.0214.083.0478.1626.082.2373"/><path class="cls-3" d="M20.9414,24.8711c-.0322-.0703-.06739-.1377-.1035-.2046-.0342-.064-.0713-.1323-.1113-.2065-.042-.0743-.0821-.148-.125-.2237.0498-.0151.0908-.0312.1211-.0468.02831-.0157.0634-.0406.1044-.0733.04891.1128.1055.2359.17.3682.0654.1323.1328.2676.206.4023.0508.0947.0957.1616.1397.2036.042.0415.082.0689.1201.0811.041.0151.085.0229.1338.02.0508-.001.1015-.0151.15431-.0439.07519-.0411.12889-.0909.16209-.1519.0332-.0601.0498-.1211.04691-.1836-.00391-.0371-.00881-.0683-.01371-.0937-.0029-.0259-.0127-.0581-.0274-.0962-.0146-.0391-.039-.0894-.0703-.1524-.0322-.0625-.0771-.1465-.1328-.2534l-.1211-.2285c-.0215-.04-.0429-.0772-.0634-.1138-.0206-.0356-.0401-.0693-.0596-.1015.0224-.0064.0429-.0132.0635-.0205.0195-.0074.039-.0166.0595-.0264.0186-.0108.0371-.022.0528-.0342.01751-.0127.0351-.0264.0507-.0391.0664.1465.1329.2857.2012.418.0684.1328.14161.273.2207.4199.043.0816.08691.1602.12891.2378.044.0777.086.1499.12889.2212-.0381.0166-.0742.0327-.1093.0518-.0342.0176-.0684.039-.10259.0615-.00781-.0176-.01461-.0352-.02441-.0537-.0078-.0186-.01859-.0391-.0283-.0581l-.0615-.1172-.0059.0024c-.001.1123-.0283.209-.082.2891-.0518.0811-.1221.1436-.209.1909-.1416.0757-.2715.0972-.3916.064-.1211-.0318-.2197-.1187-.2959-.2608-.0508-.0962-.0928-.1787-.126-.248"/><path class="cls-3" d="M24.08301,23.7451c.05469.0606.11039.1192.166.1768.05369.0586.10739.1123.15819.165.05281.0527.0967.0957.13381.1314-.04881.0307-.08691.0581-.11331.0815-.0244.0234-.0556.0586-.0908.1035-.0332-.039-.0703-.0884-.1181-.1445-.0469-.0562-.09579-.1143-.1485-.1748-.0517-.062-.1055-.1221-.1582-.1826-.0537-.0611-.1025-.1162-.1484-.166l-.1543-.1705-.0049.0039c.0342.127.0361.2393.0068.3355-.0302.0962-.083.1797-.1572.2461-.0576.0508-.12109.0947-.1943.1284-.0733.0337-.1534.0498-.2383.0474-.084-.0015-.1738-.0244-.2666-.0703-.0947-.0459-.1895-.1216-.2842-.2256-.0908-.1016-.1553-.2002-.1904-.2993-.0362-.0987-.0528-.1919-.0508-.2798.0039-.0879.0244-.169.06151-.2432.03609-.0747.08109-.1377.13869-.189.1035-.0927.206-.1435.3076-.1503.1045-.0059.1992.0136.2881.0605l.0049-.0039c-.03229-.0366-.0674-.0718-.1035-.1055-.0362-.0337-.0762-.0688-.1182-.1025.0508-.0303.0869-.0581.1143-.0811.0253-.0244.0566-.0586.0927-.1049.0323.0434.0733.0922.1192.1494.0468.0566.0966.1162.1504.1772.0527.0615.1064.1231.1611.1851.05371.061.1045.1181.1523.1704l.334.3706c.0449.0473.0947.1025.15041.1611M23.1309,23.0728c-.0606-.0425-.1241-.0733-.1885-.0918-.0645-.0176-.1289-.0191-.19239-.0083-.06541.0127-.126.0459-.18651.0996-.0371.0327-.0674.0742-.0918.124-.0264.0498-.0381.1074-.0362.1738.001.0664.0206.1406.0586.2217.0391.082.1026.1733.1934.2744.06051.0654.1211.1201.18551.1641.06159.0429.126.0742.18749.0932.06351.0181.1241.0225.1846.0103.0596-.0117.1143-.0391.1651-.085.0586-.0527.0966-.1123.1132-.1816.01761-.0684.01961-.1397.0049-.2149-.0146-.0752-.04-.1484-.082-.2236-.041-.0732-.0899-.1421-.1465-.2041-.05179-.0586-.1064-.1084-.1689-.1518"/><path class="cls-3" d="M23.8496,22.6455c-.0615-.0449-.125-.0884-.1875-.1313-.0605-.0401-.125-.0826-.1953-.1285-.0713-.0468-.1426-.0922-.21679-.1386.03809-.0371.06739-.0699.085-.0996.01849-.0274.038-.065.05859-.1133.0976.0771.205.1582.3242.2441.1191.086.24221.1734.3711.2583.0898.0591.16011.0972.2187.1133.0567.0161.1045.0215.1445.0147.043-.0054.085-.0206.129-.0455.041-.0249.0791-.0615.1123-.1113.0478-.0718.0722-.1421.0732-.2109,0-.0694-.01459-.1294-.0459-.1826-.0215-.0318-.04-.0577-.05569-.0787-.01561-.0205-.04-.0439-.07121-.0708-.0303-.0278-.0762-.0605-.13379-.1015-.05571-.0391-.13581-.0928-.23641-.1597l-.2148-.1445c-.0391-.0249-.0752-.0484-.1094-.0708-.0351-.021-.0683-.0425-.0996-.0615.0156-.0162.0303-.0323.0449-.0474.0147-.0161.0274-.0332.0401-.0523.0127-.0175.0234-.0366.03121-.0551.00979-.0196.01759-.0386.02639-.0581.1279.0981.2529.1899.376.2739.122.085.2519.1733.38961.2656.07809.0523.15429.1011.22749.1485.0752.0483.14851.0932.2188.1357-.0264.0312-.0508.063-.07229.0952-.02241.0332-.042.0669-.06051.104-.0166-.0132-.0313-.0244-.0488-.0371-.01569-.0117-.0332-.0239-.0528-.0371l-.1084-.0728-.0029.004c.0518.1.0732.1972.06441.2929-.00871.0962-.041.1856-.09661.2666-.0879.1328-.19339.2139-.3155.2422-.1211.0288-.247-.0015-.3818-.0908-.0908-.0606-.166-.1133-.2295-.1592"/><path class="cls-3" d="M24.3232,20.835c-.0918-.1612-.0996-.3516-.0214-.5669.038-.1021.0878-.1851.1455-.2471.0605-.063.125-.1094.1963-.1397.0722-.0307.14841-.0444.2275-.0419.081.0014.1621.0175.2422.0463.0195.0083.0381.0162.0556.0235.0186.0078.0362.0156.0557.0249-.041.103-.0801.206-.1201.3071-.04.1016-.0791.2041-.1172.3096-.0225.063-.0459.126-.0674.1894-.0205.0635-.041.127-.0635.1914.0079.0059.0235.0118.043.0196l.0361.0141c.0752.0274.1504.0425.2247.044.0732.0014.1425-.0083.2041-.0342.0625-.0259.1201-.0635.1699-.1147.05081-.0518.09181-.1182.1211-.1983.0156-.0386.0234-.0801.0283-.1255.0049-.0439.0049-.0888,0-.1333-.0039-.0459-.0117-.0893-.0254-.1328-.0117-.043-.0283-.082-.0478-.1182l.01361-.0117.13669.0694c.0235.0756.0362.1611.0372.2597.0009.0987-.0147.1934-.04889.2852-.03811.1045-.08881.1933-.15131.2676-.0655.0747-.13769.1313-.22269.1718-.083.0396-.17381.062-.26761.065-.0957.0029-.19039-.0122-.2881-.0484-.23629-.0869-.40229-.2124-.4961-.3759M24.3799,20.4951c.0146.0615.041.1172.07911.167.03609.0498.082.0933.13479.1318.0527.0381.1044.0684.15421.0923.02449-.0595.04889-.1216.07519-.1841.0245-.0644.04981-.1279.0733-.1894.02151-.0635.0449-.1274.0683-.1943.0225-.0664.043-.1309.0645-.1934-.0527-.019-.1094-.0352-.1689-.0474-.0625-.0127-.1221-.0161-.1827-.0078-.0595.0073-.1132.0279-.164.062-.0508.0347-.0889.0889-.1162.1651-.0254.0713-.0323.1372-.0176.1982"/><path class="cls-3" d="M24.2314,19.0366c.0752.02.1504.0391.2237.0552.0742.0156.1455.0327.2207.0503.0039-.022.0117-.0645.0215-.1245.0088-.0611.0185-.127.0263-.1988.0069.003.0176.0054.0352.0093l.0293.0049.0332.0064c.01371.0024.0254.0034.0303.0024-.0049.0259-.0127.0527-.01959.0811-.00491.0283-.01071.0576-.01751.0917l-.0254.1475c.0068.0029.04.0117.0947.0249.0557.0132.1221.0278.20121.0449.07809.0152.15819.0313.24309.0474.084.0166.1602.0303.2266.0435.0576.0092.11331.018.168.0258.0556.0059.1074.0054.15231-.0039.04589-.0078.08589-.0254.11719-.0537.0322-.0273.0537-.0718.0654-.1318.002-.0161.0039-.0386.0049-.0669.001-.0278,0-.0523-.0029-.0747l.0732.0146c0,.0352.001.0738.0029.1167.001.0435-.0019.0845-.0068.1226-.0234.1284-.0723.2163-.1455.2651-.0742.0503-.1699.0635-.293.0415-.0537-.0093-.1133-.021-.1758-.0346-.0644-.0132-.1337-.0284-.2099-.045-.0742-.0171-.1582-.0346-.2481-.0532-.0918-.0185-.1953-.0386-.30859-.0586l-.01751.0972c-.0039.0151-.0059.0327-.0069.0513-.0029.019-.0048.038-.0068.0595-.0107-.0049-.0234-.0083-.0332-.0112-.0127-.0034-.0234-.0059-.0352-.0078-.0107-.002-.0205-.0034-.0302-.0044-.0108-.001-.0205-.002-.0323-.001.0225-.0893.03711-.1553.0459-.1982-.042-.0054-.09179-.0137-.1533-.0225-.06049-.0102-.124-.0185-.1894-.0268l-.0596-.271.0019-.0152Z"/><path class="cls-3" d="M12.3521,13.4355c.3012.0791.6123.1583.9326.2369-.0152-.0415-.0352-.1001-.063-.1787-.0279-.0782-.0596-.1675-.0938-.2701-.0361-.1015-.0727-.2109-.1152-.3286-.042-.1177-.0835-.2368-.126-.3574-.0425-.1216-.0849-.2407-.124-.3579-.04-.1177-.0776-.2276-.1128-.3286l.0269-.0298c.1601.1162.3154.2295.4653.3389.14791.1103.29591.2172.4404.3222.1441.1045.2886.2075.4302.3101.1426.102.2837.2021.42631.2988-.02011.0151-.03711.0317-.05371.0483-.0147.0176-.03129.0357-.0479.0542-.0166.0181-.0332.0362-.0493.0538-.0166.0175-.0303.0366-.0449.0571-.2168-.168-.4278-.3301-.6328-.4863-.2037-.1573-.4166-.3135-.6348-.4698l-.0049.0049c.0952.2798.1914.5562.2881.8291.0967.2735.207.5508.3291.8306l-.0186.019c-.2739-.083-.5532-.1626-.8344-.2383-.2832-.0776-.5708-.1567-.8623-.2392l-.0044.0039c.0839.0977.1757.2017.2739.3154.0972.1138.1958.2246.293.3335.0971.1079.18991.2095.2778.3032.0879.0948.1626.1695.2217.2247-.024.0214-.0508.0468-.0757.0756-.0278.0293-.0498.0567-.0703.0835-.1035-.1318-.2149-.2715-.3311-.4165-.1177-.1469-.2358-.2925-.3554-.438-.1202-.1464-.2408-.289-.3589-.4292-.1187-.1386-.2339-.2705-.3443-.393l.0352-.0386c.312.0923.6181.1777.918.2563"/><path class="cls-3" d="M14.1802,11.8525c.0386-.184.1596-.3296.3623-.4384.0957-.0513.187-.0806.2729-.0884.0865-.0073.166.0019.2398.0264.0742.0253.1386.0649.1982.1201.0581.0547.1079.1201.1489.1958.0093.0185.0186.0366.0269.0537.0083.018.0166.0361.0239.0556-.09809.0508-.1972.1006-.2944.1504-.0962.0489-.1943.1001-.292.1529-.0596.0312-.11869.0639-.1758.0971-.0576.0342-.1167.0674-.1758.1006.0025.0108.0093.0244.0181.042l.0195.0352c.0381.0713.0845.1313.1382.1826.0528.0508.1118.0874.1758.1098.0625.0235.13131.0323.2031.0279.0723-.0049.1465-.0274.22221-.0679.03609-.019.07029-.0439.10349-.0747.0337-.0303.063-.064.0899-.1006.0268-.0356.0498-.0747.0693-.1152.0185-.0405.0327-.0806.0425-.1201h.0171l.0551.1425c-.0312.0723-.0786.1456-.1425.2198-.0645.0742-.1407.1338-.2276.1801-.0972.0528-.19429.0855-.2915.0982-.0967.0137-.1894.0073-.2793-.0186-.0889-.0258-.1699-.0688-.2431-.1298-.0743-.0611-.1353-.1368-.1832-.2276-.1196-.2226-.1591-.4258-.122-.6094M14.4502,11.6348c-.0313.0566-.0483.1152-.0527.1772-.0064.062-.001.1255.0127.189.0141.0625.0327.1206.0546.1719.0586-.0293.1167-.0582.1788-.0889.062-.0303.121-.0615.1801-.0918.0596-.0327.1197-.0654.1797-.1006.0611-.0352.1201-.0679.1758-.1011-.0249-.0493-.0571-.0986-.0933-.1489-.0371-.0498-.0805-.0913-.1313-.126-.0493-.0337-.104-.0552-.1641-.0625-.0591-.0073-.12549.0073-.1958.0454-.0669.0357-.11469.0816-.1445.1363"/><path class="cls-3" d="M15.8267,11.1357c-.0186-.1005-.0396-.1933-.0645-.2783.0591.001.1055-.0014.1406-.0068.0147-.0029.03321-.0068.0518-.0137.0185-.0058.0405-.0132.06641-.0215.00729.0821.01659.1641.02979.2456l.0073-.0014c.0767-.2002.21291-.3155.4072-.3467.0498-.0083.1016-.0093.1514-.002.0522.0079.0981.0215.1426.042.0434.0196.0825.0454.11771.0796.03409.0327.06.0698.07659.1099h.00641c.03269-.1055.08689-.1909.163-.2569.07669-.0639.16949-.1069.27929-.1245.0674-.0097.1304-.0107.1905-.0019.0605.0093.1137.0288.1621.0615.0473.0313.0889.0757.12211.1328.03219.0571.05659.1284.07029.2134.0053.0342.0092.0723.0146.1128.0049.0415.0093.0884.0166.1426.0069.0542.0152.1152.02351.1841.00919.0678.02049.1469.03509.2353.0093.0557.0176.1084.0278.1582.0093.0518.02011.1055.0332.1641-.0224-.0005-.0454.0014-.0683.0039-.0225.0049-.0425.0078-.063.0112-.0225.0034-.0454.0064-.0674.0107-.0215.0035-.0439.0088-.0649.0166-.002-.0512-.0132-.1547-.0308-.311-.0176-.1553-.0488-.3701-.0933-.6465-.0083-.0498-.0219-.0976-.0395-.1401-.0186-.043-.043-.0786-.0723-.1069-.0307-.0293-.0678-.0489-.1113-.0621-.0435-.0122-.0952-.0141-.1572-.0043-.0728.0117-.1338.0361-.1782.0722-.0474.0366-.0816.0777-.104.1211-.0127.0244-.022.0488-.0274.0718-.0059.0244-.0078.0596-.0049.1055.002.0468.0083.1113.0205.1933.0108.0825.02791.1963.0518.3408.0137.0865.0288.1665.0434.2378.01471.0713.0298.1499.0479.2339-.0459.0039-.0913.0083-.1328.0152-.043.0068-.08639.0156-.13139.0273-.00921-.1123-.02141-.2275-.03611-.3438-.0161-.1162-.0327-.2304-.0493-.3417-.01659-.0953-.0288-.17-.03759-.2232-.01031-.0532-.01951-.0962-.02881-.1274-.0093-.0303-.0186-.0552-.0298-.0743-.0093-.0185-.022-.0395-.0386-.062-.02879-.0351-.06979-.062-.1216-.082-.0517-.02-.1025-.0254-.1523-.0171-.1333.0205-.2261.0811-.272.1782-.0503.0972-.061.2246-.0351.3828l.0415.2588c.0136.0909.0312.1866.0498.2871.0195.0997.042.19.06391.2681-.04731.0044-.09221.0098-.13671.0166-.0454.0078-.0908.0171-.1372.0283-.0029-.0825-.0112-.1748-.0239-.2749-.01319-.101-.0269-.1972-.0415-.289l-.0513-.3169c-.0146-.0904-.0312-.1861-.0517-.2862"/><path class="cls-3" d="M18.5923,10.9644c.06-.0879.1323-.1558.2134-.2017.0825-.0474.1694-.0762.2617-.0879.0937-.0102.18361-.0088.2695.0078.0899.0161.1748.0449.2559.0884.083.0439.15521.1011.2129.1743.0615.0718.1035.1602.1298.2647.02451.1035.0254.2246.002.3613-.0264.1377-.0684.25-.1299.3384-.0605.0883-.1318.1557-.2148.2031-.0811.0464-.167.0737-.25879.082-.09181.0088-.18261.0049-.27051-.0112-.0874-.0156-.1714-.044-.2559-.085-.083-.0395-.1553-.0962-.2153-.1679-.0596-.0733-.103-.1617-.1279-.2652-.0269-.104-.0269-.2256-.002-.3623.0254-.1377.0689-.2505.1299-.3388M18.70801,11.6011c.00049.0825.01369.1567.03759.2251.0259.0688.0659.1259.1206.1743.0532.0464.1245.0791.2139.0952.0888.0161.166.0112.2334-.0146.0674-.0245.125-.065.1719-.1202.0498-.0556.0878-.1201.1171-.1963.0293-.0771.0518-.1572.0674-.2421.0156-.084.0235-.168.0225-.25-.001-.0801-.0137-.1563-.0391-.2246-.02629-.0679-.0644-.1265-.1181-.1729-.0547-.0479-.127-.0791-.2149-.0957-.0898-.0166-.1689-.0117-.23529.0132-.06741.0259-.12461.0659-.17291.1211-.0459.0547-.085.1206-.1147.1968-.0293.0756-.0518.1562-.06839.2412-.01461.0849-.022.1679-.021.2495"/><path class="cls-3" d="M21.1836,11.5449c-.0234-.021-.0488-.0376-.0781-.0508-.044-.0195-.0909-.0268-.1338-.0205-.0449.0049-.0869.0191-.127.0445-.041.0244-.0761.0571-.1113.0991-.0342.042-.0625.0918-.0859.146l-.1348.311c-.05469.127-.09569.2237-.124.2905-.0274.0674-.0479.1231-.0596.1666-.03609-.0201-.0732-.0376-.1113-.0542-.042-.0181-.0821-.0337-.1211-.045.0332-.062.0742-.1484.124-.2583.0479-.1103.1074-.2446.1768-.4052l.038-.0909c.0323-.0732.0694-.1591.1084-.2548.042-.0977.085-.2085.1348-.3355.0195.0132.0371.0249.0547.0356.01761.0113.0352.021.05661.0303.01659.0069.03519.0137.05569.0191.0205.0053.043.0107.0635.0161-.03519.0644-.0635.1162-.0821.1548-.0185.0395-.03509.0776-.0507.1128l.0058.0053c.1983-.1552.3672-.2026.5049-.144.0166.0078.0303.0156.044.0224.0107.0069.0234.0186.038.0342-.0185.0186-.038.0498-.0595.0957-.0225.0459-.042.0869-.05859.125l-.02541.0049c-.0039-.0151-.01759-.0337-.042-.0547"/><path class="cls-3" d="M21.7373,11.9375c.0518-.0869.0986-.1709.13871-.25.041.0391.07709.0684.10639.0874.0303.0181.0713.0396.125.0615-.0556.0689-.1123.146-.1699.229-.0586.0845-.1123.1651-.1621.2437l-.1729.269c-.0488.0777-.0996.1612-.1523.2486-.0527.0869-.0977.1679-.1338.2426-.0371-.0297-.0732-.0566-.1123-.081-.03809-.0235-.07809-.0464-.11909-.0694.05269-.0634.10639-.1367.165-.2211.05759-.0835.11129-.1646.16109-.2427l.17291-.2691c.04879-.0786.10059-.1606.15329-.2485M22.2471,11.1572c.04291-.0093.083-.0019.1191.0205.0371.0244.0586.0567.0684.0992.0088.0424.0029.0825-.0215.1186-.0235.0352-.0557.0596-.0977.0684-.0429.0097-.084.0019-.1201-.0215-.0361-.023-.0576-.0562-.0674-.0986-.0088-.043-.00289-.0816.0205-.1177.0245-.0371.0567-.0591.0987-.0689"/><path class="cls-3" d="M22.9717,12.5146c.0732.0372.1387.084.1982.1412.0528.0512.0947.1064.12311.164.02929.0601.04589.1182.04879.1773.0039.0591-.0049.1181-.0254.1753-.0225.059-.0557.1118-.1045.1606-.081.084-.1631.166-.2461.2461-.0859.0811-.17279.168-.2637.2598-.0166.0175-.03509.0376-.0527.0586-.0176.02-.0322.041-.041.0629-.0098.0206-.0127.0416-.0117.063,0,.021.0127.0425.0351.0635.0059.0073.0147.0152.0235.022.0088.0073.0185.0112.0302.0151l-.0468.0484c-.0244-.0088-.0489-.023-.0772-.0415-.0293-.0196-.0576-.0435-.0879-.0718-.0478-.0464-.0722-.0943-.0742-.1426-.0019-.0498.0137-.0957.0459-.1382-.1045.0015-.19429-.0097-.2705-.0351-.0752-.0244-.1514-.0723-.2266-.1465-.0371-.0352-.0673-.0747-.0918-.1192-.0263-.0449-.04-.0922-.0449-.1425-.0049-.0498.001-.1001.0166-.1495.0147-.0498.044-.0947.085-.1381.08591-.0884.1797-.1304.2822-.1255.1026.0039.21.0464.3233.1245.0927.063.166.1118.2187.146.05471.0337.09771.0566.1289.0664.0303.0098.0557.0107.0742,0,.01761-.0088.0381-.0244.05961-.0469.03609-.0371.06539-.0766.08889-.1196.0244-.042.03811-.085.0439-.1284.0059-.0445,0-.0884-.0156-.1338-.0156-.0459-.0459-.0904-.0908-.1338-.0596-.0567-.127-.0967-.2032-.1192-.0761-.0229-.1503-.0229-.2216,0l-.0235-.0234.1104-.1157c.1162.0141.209.0395.2832.0766M22.7451,13.3003c-.04-.0264-.07809-.0523-.11809-.0786-.04111-.0254-.08311-.0508-.125-.0713-.044-.0225-.086-.0366-.12991-.044-.042-.0068-.084-.0058-.127.0064-.039.0122-.081.0381-.12109.0796-.06641.0688-.09761.1406-.09081.2148.0029.0733.0303.1333.0791.1812.05571.0542.1221.0879.1982.1015.0752.0147.1456.0122.2129-.0044l.3301-.3227c-.0332-.0161-.0693-.0366-.1084-.0625"/><path class="cls-3" d="M24.2139,13.6143c.0693-.0479.1338-.0948.1992-.1416.0644-.0469.12691-.0923.1855-.1358.0577-.0439.1075-.082.1475-.1142.0234.0532.04591.0937.0654.123.0186.0278.0508.0635.0908.106-.0449.0258-.0976.0571-.1611.0962-.0605.038-.125.0795-.1933.123-.0674.0444-.1338.0884-.2022.1333-.0684.0454-.1318.0884-.1894.1279l-.46.3155c-.0586.0395-.1201.083-.1865.1303-.0694.0474-.13479.0938-.1993.1416-.0644.0479-.1269.0923-.18449.1358-.05671.0429-.10451.0796-.14161.1089-.0215-.0406-.0479-.0806-.0723-.1172-.0264-.0376-.0527-.0742-.084-.1118.042-.023.0928-.0538.1543-.0909.06061-.039.124-.0791.1924-.123.0674-.0435.1348-.0879.20221-.1338.06929-.0459.13369-.0879.18939-.1279l.46-.3155c.0595-.039.1201-.0825.1875-.1298"/><path class="cls-2" d="M21.6973,16.124c-.0186-.0312-.0547-.0718-.128-.0864-.07029-.0142-.44229-.1465-.6748-.2314-.0381-.0152-.3017-.1128-.47749-.17-.08791-.1372-.51471-.8042-.72071-.9316-.15329-.0962-.4317-.1719-.8486-.2315-.0186-.0019-.0411-.0034-.065-.0034-.1426,0-.53469.0669-.7251.1949-.2002-.1119-.4267-.1998-.57659-.169-.23691.0479-.65341.3232-.87411.5034-.1621.1338-.37689.3618-.4536.461-.0268.0341-.0581.0825-.0888.1386-.0083.0078-.0176.0157-.0269.0235-.0728-.0254-.144-.0396-.2007-.0396-.0371,0-.0683.0049-.0952.0156-.2222.0874-1.0898.7081-1.1509.8653-.0757.1987.1387.852.2935,1.1382-.1724.1152-.3286.3042-.46829.5615-.13771.2568-.18411.9717-.07321,1.1597.041.0688.1093.145.1889.2211.0064.0713.024.1568.0479.2569.0825.354.335.9204.4722,1.1518.1254.208.28121.4678.6401.523.2358.0371.4385.0547.6143.0547.186,0,.3413-.02.4633-.0611.2149-.0717.6846-.3247,1.0244-.5576.2588.2666.8335.3819.9756.3965.0279.0015.0606.0029.0967.0029.4609,0,1.7422-.2583,1.916-.4126.1612-.1425.6612-1.4419.6436-1.8398-.0117-.2588-.3311-.7412-.5244-1.0117.0781-.1914.1474-.3828.1718-.4756l.01181-.041c.03019-.106.06249-.2285.08789-.3496.0625-.0816.1308-.1768.1826-.2637.042-.0684.0888-.1441.1347-.2168.09381-.1465.17481-.2734.2012-.3457.0361-.0952.0371-.1729.0059-.2305ZM18.7827,14.625c.0147,0,.0308.001.0425.0029.3906.0547.6562.125.7891.209.1123.0694.3515.3989.5459.6909-.0459-.0083-.0967-.0132-.1553-.0132-.1445,0-.3203.0293-.4942.0831-.2168.0678-.3886.164-.5.2773-.0669-.3125-.4091-.8052-.6269-.9883-.0459-.0395-.1079-.0849-.17679-.1308.14459-.0635.40379-.1309.57569-.1309ZM16.7056,15.1191c.2016-.1645.5976-.4287.8071-.4716.0127-.002.0264-.003.0425-.003.2051,0,.5556.2144.729.3609.2026.1714.5556.6836.5791.9428.0044.0469.0063.1011.0063.1582-.0249.0928-.0351.2242-.0405.3457-.063-.0629-.123-.1142-.1777-.1513-.1665-.1104-.3462-.1934-.5235-.2442-.00289-.0527-.0092-.1035-.0185-.1435-.0596-.2437-.4805-.875-.6748-.9131-.1553-.0288-.5782.1133-.74759.1924-.04251.0205-.08841.0439-.14061.0708.0557-.0532.1094-.1035.1592-.1441ZM15.7881,17.1421c.0278.2729.0591.4839.1182.8071.0073.0362.0166.0772.0278.1221-.0703-.1143-.14409-.2344-.18509-.3189-.16841-.3461-.21431-.6713-.20511-.8066.0323-.4121.1016-.5933.211-.7651.0386-.0591.0884-.1231.1406-.1841-.0278.103-.0576.2182-.0762.3247-.0424.2519-.0644.4883-.0312.8208ZM15.9775,19.0283c-.01749,0-.0351.0059-.0488.0176-.0298.0244-.0371.0664-.0176.1011.0044.0083.0821.1377.1944.2685.084.105.2949.3594.4922.5581-.1954-.019-.523-.0957-.6748-.1845-.1998-.1148-.483-.3174-.6836-.5386-.2237-.2476-.42529-.5757-.4336-.627.00531-.0307.0922-.1455.27731-.25.04639-.0268.127-.0415.22019-.0415.126,0,.272.0269.3989.0743.1006.0375.2637.143.3912.2309-.085.1939-.126.313-.1158.3911ZM17.20701,16.3345c.02439.0034.05279.0044.09179.0053.085.003.2276.0054.3291.0376.0909.0274.1675.0562.2378.0889-.05369.0039-.1098.0108-.1699.0225-.0576.0107-.4116.1206-.4219.2475-.00189.0279-.00389-.0088.1245.1724h-.0088c-.1494,0-.2353.0278-.2788.0771-.0332.0406-.04779.1255-.04779.2242-.13971-.107-.28961-.2422-.34821-.2964.0059-.169.0235-.3594.042-.3941.0274-.0361.2154-.103.32821-.1416.04239-.0156.08349-.0293.122-.0434ZM18.5645,16.4307c.1884.1264.4492.4453.5869.8076.0429.1162.0664.2485.0752.3711-.0078-.0132-.01859-.0264-.0274-.0376-.0508-.1118-.1054-.2202-.1553-.2925-.1162-.167-.39789-.4858-.6293-.6494l-.0582-.041c-.1982-.1431-.3691-.2652-.6831-.3604-.0664-.021-.1406-.0317-.2109-.0371.0259-.0083.0537-.0161.0825-.0225.3018-.0581.6885.0401,1.0196.2618ZM19.00001,18.9131c-.01461.0019-.02831.0034-.04251.0054-.0342-.0459-.062-.0855-.0766-.1094.0034-.0078.0092-.0161.0136-.0269.002-.0019.003-.0039.0049-.0058,0,0,.0093-.0215.0259-.0562.0386-.0771.0981-.1977.1899-.3896.0137-.0284.0264-.0567.0391-.0826.0264-.0537.0449-.0917.0498-.1025v-.001c.0176-.0385.0332-.0669.0391-.08.0254.1401.00581.3715-.0811.5673-.0439.0953-.1006.1929-.16209.2813ZM18.1045,16.6401c.0381.0108.0767.0249.1138.0406.0151.0112.03171.0229.0473.0341l.0581.042c.19631.1392.46931.4327.59131.6109.02689.039.05669.0913.085.1489-.03121.019-.06641.0488-.10451.085-.082-.0215-.1738-.0494-.2656-.0806-.2412-.0835-.48389-.2246-.6162-.3198-.2549-.1856-.481-.3653-.5625-.4449.063-.0405.1933-.1.2724-.1147.1582-.0293.2857-.0298.3809-.0015ZM17.6006,17.0854c.084.066.18941.1456.3227.2422.149.106.3985.2515.6558.3404.0684.0234.1353.0444.1997.0634-.1059.1309-.2109.295-.2671.438-.0659.1646-.11769.4468-.13869.5699-.04931.0039-.12151.0127-.20451.0234-.126-.0859-.251-.1821-.3311-.27-.312-.3433-.4395-.5337-.5488-.814-.0742-.1933-.085-.5351-.0611-.584.001,0,.0298-.0215.1621-.0215.0665,0,.1412.0064.211.0122ZM18.4458,18.8887c.03521-.0034.0649-.0308.0703-.0659,0-.004.064-.4024.1406-.5962.065-.1626.1778-.3233.272-.4341.1055.1567.1348.2715.1348.2866-.0176.0376-.2642.5459-.2993.6201l-.24219.2862c-.03911-.0215-.09081-.0518-.15091-.0899.0454-.0039.0732-.0068.0747-.0068ZM18.79301,18.958c-.01761.0064-.03321.0137-.04741.022-.0083.0044-.0185.0093-.0293.0151l.0562-.0669c.0063.0088.0141.0191.02051.0298ZM16.8027,19.4893c.001.0019.002.0044.003.0073-.0113-.0044-.024-.0078-.0352-.0127.001-.001.002-.0015.0029-.0025.0093.003.0191.0054.0293.0079ZM16.9854,19.5547c-.004-.0127-.0088-.0274-.0132-.0396.02681.0015.0517.003.0766.003.0786,0,.1363-.0127.1768-.0396.061-.0415.3721-.1621.5552-.228.039-.0147.059-.0571.0473-.0957-.001-.0044-.0029-.0103-.0058-.0166.1362-.0112.3833-.0571.51271-.0816.03119.0196.061.0362.08489.0503-.2754.0918-.626.1905-.7148.21-.1289.0278-.5459.1997-.648.2524-.0146-.0005-.0395-.0068-.0717-.0146ZM18.1416,18.9336c-.123.022-.2554.0435-.332.0493.1025-.0234.2163-.0425.3198-.0571.0039.0019.0083.0049.0122.0078ZM17.64401,19.1011c.00249.0097.00739.0195.01079.0288-.1421.0527-.4385.167-.5161.2192-.0044.0025-.024.0137-.0899.0137-.0312,0-.0674-.0034-.1054-.0073.0151-.0108.0288-.021.0454-.0313.1723-.1142.3701-.1933.5771-.2666.0269.0166.0523.0303.07811.0435ZM17.7383,19.4692c.1274-.0278.9018-.2461,1.0859-.3554.0083-.0044.0196-.0093.03081-.0132-.04931.0557-.09431.0991-.126.1225-.24411.1768-.90921.3819-1.13231.4092-.062.0073-.1221.0113-.18069.0113-.04391,0-.08791-.003-.12941-.0059.1538-.0654.3721-.1514.4517-.1685ZM16.9951,17.3574c.0288.0215.0537.041.0786.0596.00931.0727.0225.1445.0371.206-.1181-.0595-.2832-.1323-.4589-.1806-.1275-.0357-.29589-.0611-.3902-.0728.00931-.0581.0322-.1421.09231-.209.03709-.0419.16309-.0942.26219-.1254.0684.0634.2319.2119.3789.3222ZM16.6113,17.5923c.2608.0718.5034.2065.5772.25.1074.2456.247.4399.5342.7558.0581.065.1396.1329.2255.1978-.123.0225-.249.0498-.3471.0845-.0054.0019-.0108.0034-.0166.0053-.2027-.1337-.4829-.374-.7696-.705-.1777-.2032-.3701-.479-.4795-.6426.0875.0122.1929.0312.2759.0542ZM16.6973,18.2832c.2563.2939.5063.5195.708.6675-.1778.0659-.3496.1411-.5034.2441-.064.043-.1192.0835-.1656.1187-.0102-.0039-.0224-.0069-.0322-.0093-.123-.0366-.5352-.2271-.5718-.2949-.0102-.0552.0913-.2847.1304-.3716.0137-.0317.0269-.061.0361-.083.0259-.0635.1958-.2227.3384-.3413.0205.0239.04.0469.0601.0698ZM16.4736,19.5342c.0352.0151.0723.0293.1118.0449.0518.0332.37361.2192.83061.2192.065,0,.13089-.0029.19919-.0112.23981-.0288.92781-.2383,1.2046-.438.0723-.0512.1699-.1577.26421-.2861.039-.0029.081-.0034.124-.0034.03129,0,.05959,0,.084.0005-.13091.1469-.374.3969-.64161.581-.3818.2622-.7476.3169-.9873.3169-.1406,0-.2422-.0176-.3062-.0288-.2441-.041-.6215-.2261-.8833-.395ZM19.20801,18.9038h-.01561c.043-.0688.082-.1392.1123-.2085.11031-.249.126-.5444.082-.708-.001-.0015-.001-.0039-.0029-.0068.0117-.1407.0234-.5034-.0869-.7974-.0401-.1045-.08789-.2046-.1406-.2969.0185-.124.0371-.2187.05371-.2436.32419-.3233.63079-.3848.78609-.3921.0146-.001.0273-.002.0371-.002.0557,0,.0615,0,.1494.1167.1817.2412.3985.8404.375.9366-.0303.124-.2285.58-.4775.9003-.044.0567-.0987.1216-.1563.191-.0117.0053-.0205.0117-.0293.02-.0029.0044-.25.292-.4746.4975-.04489-.0024-.123-.0068-.21189-.0068ZM15.9731,16.3477c.0406-.2413.1431-.5372.17-.6104.25191-.2207.459-.3325.6108-.4043.1553-.0718.4849-.1821.6255-.1821.0102,0,.0185.001.0249.0024.0991.0293.4941.5528.5542.7979.0034.0185.0073.0425.0112.0683-.1601-.0283-.3149-.0307-.4555-.0029-.1348.0273-.2857.0991-.3457.1636-.04249.0161-.0889.0322-.1353.0488-.2183.0772-.356.1304-.40619.2026-.04551.0694-.06211.2969-.06741.4576-.0908.0297-.2534.0903-.3218.167-.1406.1591-.1382.374-.1382.3833,0,.0156.0068.0307.0151.0434.024.0376.2124.334.42631.6094-.09421.0776-.25141.2153-.33691.3242-.0498-.147-.11909-.3618-.144-.4961-.05909-.3183-.0909-.5259-.1177-.7944-.0313-.315-.0103-.5381.0307-.7783ZM14.7354,16.5215c.0571-.1074.82661-.6856,1.0629-.7783.0044-.002.01571-.0059.0386-.0059.0225,0,.0474.0039.0762.0098-.0899.0927-.2119.2295-.28909.3496-.14211.2226-.20511.4492-.23391.8374-.0146.1821.0484.5356.2203.8867.0683.1421.2202.3779.3164.5239-.063-.0366-.1221-.0674-.1719-.0854-.0088-.0034-.0176-.0069-.0278-.0098-.0787-.0581-.1519-.1128-.2046-.1562-.211-.1709-.397-.4048-.4634-.5039-.1499-.2188-.3765-.9278-.3237-1.0679ZM14.4761,19.2437c-.0703-.1207-.0498-.771.0766-1.0064.125-.2319.2666-.4028.4175-.5049.0991.1343.2544.3106.4126.4468-.02779-.0015-.0537-.0029-.0796-.0029-.0869,0-.208.0107-.2959.061-.1909.1084-.3369.2544-.3554.356-.02789.1377.3266.6001.4716.7622.2686.2934.6202.5097.7217.5678.1641.0967.4829.1739.6987.2012-.0268.002-.0566.0039-.08589.0039-.50541,0-1.23831-.2768-1.33251-.3242-.1099-.0571-.5366-.3701-.6494-.5605ZM16.7207,21.3218c-.2129.0703-.5478.0718-1.0068-.001-.2842-.0435-.4146-.2583-.5347-.4595-.1118-.1875-.36619-.7461-.4478-1.0957-.0053-.021-.0092-.0405-.0136-.0591.1411.1128.2783.2061.3374.2359.11281.0576.8686.3408,1.40281.3408.09229,0,.17579-.0088.24609-.0259.04491-.0112.0884-.0351.1294-.0669.1592.1319.4346.3443.728.4805.0371.0166.0747.0303.1157.0405.0054.0249.0147.0484.0249.0708-.3154.2178-.767.4678-.9814.5396ZM17.62701,20.5293c-.28671-.1338-.60111-.3711-.79741-.5479-.0479-.0434-.09959-.0957-.1533-.1494.2275.1187.4756.2202.6679.253.04981.0088.1646.0293.3189.0293.2622,0,.6606-.0596,1.0752-.3438.3974-.2744.7353-.6763.7754-.7246.0439-.0396.0947-.0869.1474-.1387-.165.3238-.4023.7354-.6396.9717-.5884.584-1.0611.8066-1.39449.6504ZM21.2705,19.0659c.0156.3457-.4668,1.604-.5918,1.7163-.1113.0977-1.3008.3731-1.8125.3731-.0298,0-.0576,0-.0815-.003-.18169-.018-.6534-.1411-.8614-.3349.0498-.0381.0953-.0752.1333-.1099.3096-.0757.669-.3169,1.0752-.7178.1807-.1811.3594-.4516.5078-.7124.1446-.0297.2862-.0688.3731-.1206.207-.1259.5166-.4087.6855-.6831.0381-.0649.085-.1577.1299-.2583.1963.2818.4326.6656.4424.8506ZM20.9355,17.4873l-.0117.043c-.041.1484-.2285.6499-.3593.8613-.14849.2441-.44049.5127-.6338.6309-.043.0263-.1114.0488-.1895.0693.13481-.2568.2344-.4785.2715-.5625.07031-.084.1377-.1641.1904-.2324.25691-.3301.4688-.8062.50591-.9571.04489-.1816-.23631-.8486-.40241-1.0678-.1025-.1372-.1474-.1861-.3183-.1768-.1768.0083-.52829.0777-.8887.437-.0244.0254-.0469.084-.0654.1631-.0176-.0239-.03519-.0469-.0537-.0703.0009-.1455.0078-.3672.041-.4863.0439-.1553.2451-.3013.5351-.3921.3116-.0967.6241-.0977.7022-.0083.0225.0259.0674.0722.123.1308.1934.2056.5977.6324.6661.7955.0468.1176.0087.394-.1124.8227ZM21.5449,16.2998c-.0205.0566-.1054.1895-.1845.3164-.0469.0742-.0967.1514-.1377.2217,0,0-.001.0019-.002.0039.0039-.0933-.0049-.1743-.0303-.2354-.06439-.1582-.334-.4585-.6045-.747.0889.0312.1817.0644.2549.0927.0606.022.5928.2168.6983.2388.00291.0005.0185.0034.0205.0088.0058.0093.0088.0405-.0147.1001Z"/></svg>