<?xml version="1.0" encoding="UTF-8"?><svg xmlns="http://www.w3.org/2000/svg" viewBox="0 0 94 14"><defs><style>.cls-1{fill:#aa8657;stroke-width:0px;}</style></defs><path class="cls-1" d="M4.2881,5.1377c.3154-.4146.625-.8408.9258-1.2793.081.0186.1582.0347.2382.0479.0782.0136.1563.0205.2393.0205.1104,0,.2647-.0215.4658-.0684-.4375.5024-.86419.9971-1.28019,1.4849-.41511.4882-.82721.9785-1.23741,1.4707.4102.6035.836,1.1987,1.2793,1.7861.4415.5894.8965,1.1758,1.3614,1.7588-.128-.0181-.252-.0259-.3692-.0259h-.6572c-.1191,0-.2422.0078-.3701.0259-.30079-.4468-.6123-.9004-.9297-1.3613-.3203-.46-.6436-.9234-.9717-1.3887-.3388.4653-.6689.9287-.9931,1.3887-.32329.4609-.6407.9145-.9512,1.3613-.1455-.0181-.2969-.0259-.4512-.0259-.165,0-.3193.0078-.4658.0259.4385-.5108.8662-1.0278,1.2871-1.5532.4189-.524.835-1.0596,1.2451-1.6079-.4101-.5567-.8232-1.1089-1.23829-1.6563-.416-.5464-.84271-1.1079-1.27931-1.6831.127.0186.2471.0347.36231.0479.11429.0136.23439.0205.36239.0205.1269,0,.248-.0069.3632-.0205.1133-.0132.23441-.0293.3623-.0479.2647.4385.54111.8647.8272,1.2793.289.416.5918.8418.9121,1.2808.3262-.439.6484-.8648.9629-1.2808"/><path class="cls-1" d="M10.7686.9849c.1377-.1377.3017-.2056.4931-.2056s.3555.0679.4922.2056c.1367.1367.20411.3007.20411.4926,0,.1914-.06741.356-.20411.4922-.1367.1377-.3008.2061-.4922.2061s-.3554-.0684-.4931-.2061c-.1368-.1362-.2041-.3008-.2041-.4922,0-.1919.0673-.3559.2041-.4926M10.7354,5.125c-.0147-.4517-.044-.8735-.0899-1.2666.2549.0469.4609.0684.6162.0684.15531,0,.3594-.0215.6162-.0684-.0468.3931-.0761.8149-.0898,1.2666-.0137.4512-.0205.8818-.0205,1.2935v1.4228c0,.4102.0068.8413.0205,1.2935.0137.4511.043.8598.0898,1.2241-.20989-.0181-.416-.0269-.6162-.0269-.2012,0-.4072.0088-.6162.0269.0459-.3643.0752-.773.0899-1.2241.01261-.4522.0195-.8833.0195-1.2935v-1.4228c0-.4117-.00689-.8423-.0195-1.2935"/><path class="cls-1" d="M21.0049,4.9604c-.2637-.351-.62889-.5268-1.0938-.5268-.6386,0-1.1064.1968-1.4033.5884-.2969.393-.4443.9438-.4443,1.6562v1.1631c0,.4102.0068.8413.02051,1.2935.01269.4511.043.8598.08889,1.2241-.21-.0191-.4151-.0269-.6163-.0269-.2011,0-.4052.0078-.6162.0269.0459-.3643.0772-.773.0899-1.2241.01271-.4522.0195-.8833.0195-1.2935v-1.4228c0-.4117-.00679-.8423-.0195-1.2935-.0127-.4517-.044-.8735-.0899-1.2666.2569.0469.4619.0684.6162.0684.0723,0,.15341-.0069.2383-.0205.0869-.0132.1905-.0293.3096-.0479-.0283.3647-.041.7305-.041,1.0957h.0273c.2559-.3931.5625-.6963.9199-.9102.3565-.2158.78231-.3217,1.2764-.3217.25591,0,.5137.0366.7754.1093.2607.0738.4971.1978.7061.3765.2119.1777.3828.419.5156.7251.13081.3052.1992.6958.1992,1.1699,0,.3921-.0088.7959-.02639,1.2115-.01951.4155-.02831.8564-.02831,1.3208v.8891c0,.146.002.2901.0068.4307.0049.1421.0118.2763.02151.4038-.18551-.0191-.37891-.0269-.583-.0269-.19331,0-.38281.0078-.56741.0269.0176-.4736.0381-.9619.0606-1.4639.0234-.5014.0351-1.0166.0351-1.5459v-.8359c0-.6841-.1318-1.2012-.3974-1.5528"/><path class="cls-1" d="M27.1367,4.9604c.1367-.2783.3262-.5087.5684-.6909.2412-.1836.5195-.3188.833-.4111.3164-.0908.6514-.1362,1.0068-.1362.1739,0,.3399.0044.5.0132.1592.0092.3623.0234.6084.041.21.018.3965.0312.5625.041.1641.0097.2959.0141.3965.0141.51071,0,.8799-.0239,1.1084-.0693-.0098.0454-.0156.0928-.0215.1441-.0049.0507-.0068.0981-.0068.1435,0,.0469.0019.0947.0068.1445.0059.0494.0117.0982.0215.1436-.2656-.0181-.5234-.0386-.7734-.0615-.251-.0225-.4991-.0391-.7461-.0479l-.0274.0274c.2823.1533.5098.3945.6846.7187.1729.3237.2598.6587.2598,1.0039,0,.6851-.2315,1.2222-.6905,1.6099-.4619.3872-1.08.581-1.8545.581-.1289,0-.2539-.0044-.3769-.0131-.1231-.0098-.249-.0142-.377-.0142-.164,0-.3164.06-.458.1777-.1416.1192-.2119.2696-.2119.4527,0,.2368.0567.4101.1709.5195.1143.1094.3262.1684.63671.1777.25489.0093.50389.0157.752.0191.248.0063.49709.0127.75289.0219.419.0093.7774.0591,1.0752.1504.29591.0918.5371.2149.7246.3702.1865.1547.32331.332.4112.5332.0869.2001.1308.4204.1308.6572,0,.3193-.0625.6426-.1855.9717-.1241.3281-.3155.6245-.57519.8901-.25981.2642-.59481.4824-1.00491.6548-.41209.1743-.9043.2617-1.4795.2617-.8857,0-1.583-.1763-2.0938-.5269-.5117-.352-.7666-.8325-.7666-1.4448,0-.2363.043-.456.1299-.6562.086-.2012.1992-.3784.336-.5332.1367-.1563.292-.2788.4648-.3706.1719-.0909.3506-.1592.5332-.2046v-.0283c-.2822-.0811-.49609-.2183-.6426-.4102-.14549-.1914-.2187-.4185-.2187-.6836,0-.1553.0293-.2978.0888-.4243.0596-.1279.1348-.2417.2256-.3418.0909-.1011.1973-.1831.3145-.2471.1201-.0639.2324-.105.3418-.1235v-.0269c-.419-.1821-.7471-.4399-.9844-.7729s-.3555-.751-.3555-1.253c0-.3828.06741-.7138.2051-.9917M31.3086,10.6602c-.3184-.2188-.8467-.3282-1.585-.3282-.6855,0-1.2148.1114-1.5879.3355-.375.2231-.5605.6269-.5605,1.2109,0,.3096.05181.5747.1562.7935.1055.2187.2471.3969.4249.5332.17771.1382.3896.2373.63571.3008.24609.0644.51169.0971.79389.0971.2735,0,.544-.0371.8077-.1093.2646-.0738.5-.1832.7041-.3296.206-.1455.373-.3301.5-.5537.1269-.2232.19231-.4908.19231-.7999,0-.5478-.16111-.9306-.48141-1.1503M30.6396,4.5708c-.2724-.3013-.6337-.4526-1.081-.4526-.4932,0-.875.1665-1.1494.5-.2735.3335-.41119.7783-.41119,1.3339,0,.5757.12409,1.0293.377,1.3624.251.333.64059.499,1.16989.499.2647,0,.4903-.0518.6778-.1568.1875-.1054.3418-.247.4658-.4248.123-.1772.2138-.3828.2734-.6157.0586-.2324.0879-.4761.0879-.7314,0-.5752-.1357-1.0142-.4102-1.314"/><rect class="cls-1" x="36.4004" y="6.7461" width="3.4082" height=".8486"/><path class="cls-1" d="M46.3086.9712c-.2012,0-.3721.0386-.5127.1162-.1426.0772-.2588.1777-.3496.3008-.0918.124-.1582.2666-.1992.4311-.041.1651-.0616.3379-.0616.5205,0,.1641.0186.4019.0528.711.0342.3105.0762.6074.125.8896.2383,0,.4726-.0019.706-.0058.2325-.0044.4678-.0078.7051-.0078-.0098.0468-.0176.0918-.0215.1372-.00389.0459-.0058.0908-.0058.1362,0,.0469.00191.0923.0058.1377.0039.0459.0117.0913.0215.1367-.2373-.0088-.4726-.019-.7051-.0273-.2334-.0088-.4677-.0137-.706-.0137,0,.9946.0029,1.9824.0078,2.9634.00391.98.0205,1.9687.04691,2.9619-.10261-.0181-.20221-.0269-.30281-.0269h-.292c-.1933,0-.3955.0088-.6084.0269.0635-.9932.1006-1.9761.1094-2.9492.00881-.9707.0127-1.9634.0127-2.9761-.1631,0-.3281.0049-.4922.0137-.165.0083-.3281.0185-.4922.0273.0079-.0454.0166-.0908.0196-.1367.00391-.0454.0068-.0908.0068-.1377,0-.0454-.00289-.0903-.0068-.1362-.003-.0454-.0117-.0904-.0196-.1372.1641,0,.3301.0034.4991.0078.1689.0039.331.0058.4853.0058,0-.2641.0283-.5517.082-.8623.0557-.3095.1348-.6157.2393-.9165.1055-.3012.2314-.5859.377-.8554.1464-.2686.3105-.4947.4921-.6773.1651-.1645.3721-.3096.6241-.437.25-.1284.5088-.1919.7734-.1919.0986,0,.1904.0132.2725.04-.0078.1827-.0196.3658-.0352.5474-.0117.1831-.0195.3647-.0195.5479l-.0811.041c-.2197-.1363-.4707-.2051-.7529-.2051"/><path class="cls-1" d="M51.0508,2.9688c-.0049-.3648-.0117-.7247-.0225-1.0811-.0078-.355-.0185-.6963-.0322-1.021-.0147-.3237-.0303-.5996-.0479-.8267.2549.0464.46.0694.6153.0694s.3603-.023.6162-.0694c-.0186.2271-.0352.503-.0488.8267-.0127.3247-.0245.666-.0332,1.021-.0088.3564-.01569.7163-.0206,1.0811-.0048.3652-.0078.7036-.0078,1.0131v2.4776c0,.3095.003.6469.0078,1.0117.00491.3657.0118.7256.0206,1.0815.0087.356.0205.6934.0332,1.0132.0136.3194.0302.5835.0488.793-.21-.0181-.4151-.0269-.6162-.0269-.2002,0-.4063.0088-.6153.0269.0176-.2095.0332-.4736.0479-.793.0137-.3198.0244-.6572.0322-1.0132.0108-.3559.0176-.7158.0225-1.0815.0049-.3648.0068-.7022.0068-1.0117v-2.4776c0-.3095-.0019-.6479-.0068-1.0131"/><path class="cls-1" d="M56.9756,5.5488c.1982-.4326.4541-.7846.77441-1.0537.31929-.2685.67769-.4658,1.07319-.5888.3975-.1236.793-.1841,1.1846-.1841.4014,0,.7979.0605,1.1924.1841.3916.123.7461.3203,1.0644.5888.32041.2691.5782.6211.7745,1.0537.1963.4331.29491.9605.29491,1.5806,0,.6211-.09861,1.147-.29491,1.5815-.1963.4327-.45409.7842-.7745,1.0528-.3183.2695-.6728.459-1.0644.5683-.3945.1094-.791.1646-1.1924.1646-.3916,0-.7871-.0552-1.1846-.1646-.3955-.1093-.7539-.2988-1.07319-.5683-.32031-.2686-.57621-.6201-.77441-1.0528-.1963-.4345-.293-.9604-.293-1.5815,0-.6201.0967-1.1475.293-1.5806M57.9893,8.2378c.0683.356.1845.6733.3496.9517.16311.2778.3828.4995.6552.663.2735.1636.6114.2466,1.0137.2466.4014,0,.7393-.083,1.0127-.2466.2734-.1635.4922-.3852.6572-.663.1631-.2784.28031-.5957.3487-.9517.0674-.355.1035-.7256.1035-1.1084,0-.3833-.0361-.7524-.1035-1.1084-.06839-.356-.1856-.6733-.3487-.9517-.165-.2778-.3838-.4985-.6572-.663-.2734-.1646-.6113-.2471-1.0127-.2471-.4023,0-.7402.0825-1.0137.2471-.2724.1645-.49209.3852-.6552.663-.1651.2784-.2813.5957-.3496.9517-.0684.356-.1026.7251-.1026,1.1084,0,.3828.0342.7534.1026,1.1084"/><path class="cls-1" d="M68.7539,9.0732c-.1846-.5205-.3828-1.0747-.5967-1.6635-.2148-.5879-.4375-1.1909-.6709-1.8062-.23429-.6172-.4638-1.1972-.6904-1.7451.1094.0186.2168.0347.3213.0479.1055.0136.2129.0195.3213.0195.1006,0,.2002-.0059.3017-.0195.0996-.0132.209-.0293.3282-.0479.2373.8584.499,1.7178.788,2.5806.2852.8613.6084,1.7485.9639,2.6616.1094-.2559.2412-.5938.3965-1.0137.1553-.4189.3145-.8711.4785-1.354.166-.4834.3301-.9756.4922-1.478.166-.502.31051-.9668.43951-1.3965.164.0469.30069.0674.41009.0674.0733,0,.1367-.0059.1914-.0195.0547-.0132.1192-.0293.1914-.0479.2285.876.4932,1.7407.794,2.5928.3007.8545.6152,1.7363.9433,2.6494.1201-.2925.25881-.6519.419-1.0747.1572-.4248.3252-.8706.499-1.3418.17281-.4693.3486-.9512.5264-1.4434.1777-.4927.3437-.9526.5009-1.3823.1807.0469.3282.0674.43751.0674.11819,0,.25489-.0205.41019-.0674-.5195,1.104-1.0068,2.1953-1.458,3.271-.45119,1.0767-.8731,2.1538-1.2676,3.2295-.09759-.0181-.2178-.0269-.3545-.0269h-.1914c-.0625,0-.1172.0088-.1641.0269-.2373-.8115-.497-1.6275-.7802-2.4492-.2823-.8213-.6055-1.6831-.9707-2.5869-.1094.2739-.2432.6137-.3965,1.019-.15719.4067-.3145.8428-.4805,1.3081-.164.4653-.3262.9375-.4922,1.4155-.164.4795-.31149.9102-.4394,1.2935-.1074-.0181-.2354-.0269-.3809-.0269-.1474,0-.2734.0088-.3847.0269-.1094-.3379-.2549-.7661-.4356-1.2857"/><path class="cls-1" d="M81.2119,4.6802c.5332-.6387,1.3125-.958,2.333-.958.4854,0,.9004.0747,1.253.2251.3515.1504.6455.352.8837.603.2373.251.4112.5454.52641.8818.11429.3379.17089.6978.17089,1.0811,0,.0923-.00189.1811-.0068.2676-.0039.0864-.0127.1753-.0205.2666-.4922-.0088-.9795-.0176-1.4649-.0274-.4824-.0088-.97069-.0141-1.4648-.0141-.3008,0-.5977.0053-.8955.0141-.2959.0098-.5948.0186-.8955.0274-.0098.0473-.0157.1142-.0157.205v.1778c0,.3574.0537.6889.1592.999.1045.3105.2578.5781.458.8013.2022.2236.4463.4013.7403.5332.29.1328.6289.1992,1.0117.1992.18061,0,.3691-.0259.5605-.0762.1914-.0493.3789-.1177.5625-.2051.1807-.0869.35161-.1884.5127-.3076.1582-.1191.2988-.2466.417-.3828l.0684.041-.0821.6699c-.27339.2198-.6142.4068-1.0185.5616-.4072.1562-.8291.2329-1.2666.2329-.4942,0-.9414-.0757-1.3487-.2261-.4062-.1504-.7548-.3691-1.05459-.6572-.295-.2871-.52451-.627-.68361-1.0195-.1602-.3907-.2393-.8165-.2393-1.273,0-1.1226.2666-2.0024.7998-2.6406M82.7178,4.3921c-.2324.1558-.4239.3496-.5742.5825-.1504.2324-.2647.4878-.3418.7656-.0782.2784-.126.5406-.1455.7876.2841.0083.5781.0181.88371.0264.30569.0103.60549.0146.89749.0146.3008,0,.60451-.0043.916-.0146.3106-.0083.6113-.0181.9043-.0264,0-.247-.0205-.5068-.0615-.7807-.041-.274-.1231-.5293-.2481-.7661-.123-.2373-.2939-.4331-.5127-.5889-.2187-.1548-.5058-.2329-.8613-.2329-.3388,0-.624.0781-.8564.2329"/><path class="cls-1" d="M93.4199,4.8306c-.1318-.0459-.2666-.0694-.4033-.0694-.2187,0-.416.0508-.5898.1519-.1729.1006-.3184.2348-.4356.4023-.1201.17-.2109.3701-.2734.6026-.0655.2324-.0977.4819-.0977.7456v1.5058c0,.6119.002,1.0791.0088,1.4029.0029.3242.0205.5864.0459.7866-.1826-.0181-.3643-.0269-.5469-.0269-.2002,0-.3935.0088-.5742.0269.0254-.3096.043-.7319.0459-1.2651.0049-.5333.0088-1.1885.0088-1.9644v-.4375c0-.356-.0039-.7661-.0088-1.2319-.0029-.4649-.0205-.9991-.0459-1.6016.1006.0186.19431.0347.2871.0479.0908.0136.1865.0205.2871.0205.08211,0,.169-.0069.2598-.0205.0908-.0132.1875-.0293.2871-.0479-.0361.3291-.0566.5889-.0615.7803-.0039.1919-.0049.375-.0049.5478l.0273.0132c.5362-.9853,1.1397-1.4775,1.8047-1.4775.083,0,.1534.0044.2119.0132.0596.0102.1348.0322.2266.0688-.04589.1094-.0732.2764-.082.499-.0098.2241-.0137.4268-.0137.6099l-.0957.0679c-.0459-.0552-.1348-.105-.2676-.1504"/></svg>